<?xml version="1.0" standalone="no"?>
<!DOCTYPE svg PUBLIC "-//W3C//DTD SVG 1.1//EN" "http://www.w3.org/Graphics/SVG/1.1/DTD/svg11.dtd" >
<!--
2013-9-30: Created.
-->
<svg>
<metadata>
Created by iconfont
</metadata>
<defs>

<font id="iconfont" horiz-adv-x="1024" >
  <font-face
    font-family="iconfont"
    font-weight="500"
    font-stretch="normal"
    units-per-em="1024"
    ascent="896"
    descent="-128"
  />
    <missing-glyph />
    
    <glyph glyph-name="iconzhuye" unicode="&#58924;" d="M999.766063 325.842439c-6.239098 0-12.477172 2.385327-17.242709 7.144724L512.073678 803.436838 41.62298 332.987163c-9.523911-9.524934-24.955368-9.524934-34.479279 0-9.523911 9.523911-9.523911 24.955368 0 34.479279L494.837108 855.158826c9.523911 9.523911 24.955368 9.523911 34.479279 0l487.687268-487.693408c9.530051-9.523911 9.530051-24.955368 0-34.479279C1012.244258 328.227766 1006.005161 325.842439 999.766063 325.842439L999.766063 325.842439zM999.766063 325.842439M804.692179-88.694809 633.999588-88.694809c-13.480013 0-24.387433 10.907421-24.387433 24.38641 0 13.473873 10.907421 24.382317 24.387433 24.382317l170.69259 0c26.885324 0 48.768727 21.883403 48.768727 48.768727L853.460906 277.072689c0 13.480013 10.903328 24.387433 24.382317 24.387433 13.477966 0 24.387433-10.907421 24.387433-24.387433L902.230656 8.841621C902.229632-44.949492 858.485339-88.694809 804.692179-88.694809L804.692179-88.694809zM390.154931-88.694809 219.462341-88.694809c-53.79316 0-97.538477 43.745317-97.538477 97.53643L121.923864 472.148619c0 13.478989 10.902304 24.38641 24.382317 24.38641 13.478989 0 24.38641-10.907421 24.38641-24.38641L170.69259 8.841621c0-26.885324 21.884426-48.768727 48.76975-48.768727l146.30618 0L365.768521 179.536258c0 13.478989 10.907421 24.38641 24.38641 24.38641l243.844657 0c13.478989 0 24.38641-10.907421 24.38641-24.38641 0-13.480013-10.907421-24.382317-24.38641-24.382317L414.537248 155.153942l0-219.462341C414.537248-77.787388 403.628804-88.694809 390.154931-88.694809L390.154931-88.694809zM390.154931-88.694809"  horiz-adv-x="1040" />

    
    <glyph glyph-name="gongzuotai" unicode="&#58984;" d="M704-42.66666699999996c0-10.666667-10.666667-21.333333-21.333333-21.333333H341.333333c-10.666667 0-21.333333 10.666667-21.333333 21.333333s8.533333 21.333333 21.333333 21.333334h341.333334c10.666667 0 21.333333-10.666667 21.333333-21.333334zM960 64H64c-36.266667 0-64 27.733333-64 64V768c0 36.266667 27.733333 64 64 64h896c36.266667 0 64-27.733333 64-64v-640c0-36.266667-27.733333-64-64-64zM64 789.333333c-12.8 0-21.333333-8.533333-21.333333-21.333333v-640c0-12.8 8.533333-21.333333 21.333333-21.333333h896c12.8 0 21.333333 8.533333 21.333333 21.333333V768c0 12.8-8.533333 21.333333-21.333333 21.333333H64zM266.666667 170.66666699999996c-12.8 0-21.333333 8.533333-21.333334 21.333333V533.333333c0 12.8 8.533333 21.333333 21.333334 21.333334s21.333333-8.533333 21.333333-21.333334v-341.333333c0-12.8-8.533333-21.333333-21.333333-21.333333zM757.333333 170.66666699999996c-12.8 0-21.333333 8.533333-21.333333 21.333333V576c0 12.8 8.533333 21.333333 21.333333 21.333333s21.333333-8.533333 21.333334-21.333333v-384c0-12.8-8.533333-21.333333-21.333334-21.333333zM597.333333 170.66666699999996h-4.266666c-10.666667 0-19.2 8.533333-19.2 19.2V450.133333c0 10.666667 8.533333 19.2 19.2 19.2h4.266666c10.666667 0 19.2-8.533333 19.2-19.2v-260.266666c-2.133333-10.666667-10.666667-19.2-19.2-19.2zM430.933333 170.66666699999996c-12.8 0-21.333333 8.533333-21.333333 21.333333V661.333333c0 12.8 8.533333 21.333333 21.333333 21.333334s21.333333-8.533333 21.333334-21.333334v-469.333333c0-12.8-10.666667-21.333333-21.333334-21.333333z"  horiz-adv-x="1024" />

    
    <glyph glyph-name="pinpaituan" unicode="&#58970;" d="M838.4 761.6 185.6 761.6 0 499.2l486.4-537.6c12.8-19.2 38.4-19.2 57.6 0L1024 499.2 838.4 761.6zM217.6 473.6l198.4-384-339.2 384L217.6 473.6zM531.2 518.4 531.2 716.8l121.6 0c57.6-108.8 89.6-166.4 108.8-198.4L531.2 518.4zM761.6 473.6l-230.4-435.2L531.2 473.6 761.6 473.6zM492.8 518.4 262.4 518.4l108.8 198.4 121.6 0L492.8 518.4zM492.8 473.6l0-435.2L262.4 473.6 492.8 473.6zM806.4 473.6l140.8 0-339.2-384L806.4 473.6zM953.6 518.4l-153.6 0-6.4 12.8c0 6.4-6.4 6.4-6.4 12.8l-96 172.8 121.6 0L953.6 518.4zM204.8 716.8l121.6 0C275.2 620.8 243.2 569.6 230.4 544L217.6 518.4 70.4 518.4 204.8 716.8z"  horiz-adv-x="1024" />

    
    <glyph glyph-name="gouwuche" unicode="&#58956;" d="M860.397898 180.899302l-513.658779 0c-2.804882 0-7.589862 3.997034-8.222265 9.335622l-49.822732 350.723873-27.975145 161.320129c-6.300496 51.511187-51.683103 91.877547-103.307877 91.877547l-56.874335 0c-10.876722 0-19.674085-8.797363-19.674085-19.674085 0-10.875698 8.80248-19.674085 19.674085-19.674085l56.874335 0c32.085766 0 60.329017-25.190729 64.403822-58.295708l28.011984-161.682379 49.66719-349.70466c2.883677-24.035416 24.077372-43.574425 47.246047-43.574425l513.658779 0c10.872628 0 19.674085 8.797363 19.674085 19.674085C880.073007 172.097846 871.270527 180.899302 860.397898 180.899302L860.397898 180.899302zM860.397898 180.899302M925.820933 692.996516c-8.41567 9.530051-19.50217 14.564717-32.029484 14.564717L363.284957 707.561233c-10.876722 0-19.674085-8.80248-19.674085-19.674085 0-10.876722 8.797363-19.674085 19.674085-19.674085l530.506493 0c0.960885 0 1.458211-0.062422 2.533706-1.2689 2.632967-2.977821 4.979408-9.993608 4.26821-16.063861l-52.857858-302.786071c-0.788969-6.321986-7.840572-12.126178-16.121166-12.219299l-410.863578-30.30112c-10.835789-0.788969-18.984377-10.223852-18.174941-21.057595 0.748037-10.354835 9.393951-18.23327 19.596314-18.23327 0.480954 0 0.981351 0.016373 1.461281 0.058328l409.537374 30.241768c26.861788 0.152473 50.417273 20.672832 53.468772 45.728484L939.517887 645.153882C941.634084 662.697443 936.36815 681.048393 925.820933 692.996516L925.820933 692.996516zM925.820933 692.996516M796.019659 80.277604c-29.286 0-53.108568-23.827685-53.108568-53.104475 0-29.264511 23.838941-53.088102 53.108568-53.088102 29.248138 0 53.078893 23.826662 53.078893 53.088102C849.099574 56.449919 825.281099 80.277604 796.019659 80.277604L796.019659 80.277604zM796.019659 80.277604M379.569852 80.277604c-29.281907 0-53.108568-23.827685-53.108568-53.104475 0-29.264511 23.838941-53.088102 53.108568-53.088102 29.248138 0 53.082986 23.826662 53.082986 53.088102C432.653861 56.449919 408.831292 80.277604 379.569852 80.277604L379.569852 80.277604zM379.569852 80.277604"  horiz-adv-x="1024" />

    
    <glyph glyph-name="chengyuanguanli" unicode="&#58979;" d="M192.565 218.080c14.133 0 25.63 11.496 25.63 25.628v134.38h268.757v-134.379c0-14.132 11.497-25.628 25.629-25.628s25.63 11.496 25.63 25.628l-0 134.379h268.757v-134.379c0-14.132 11.497-25.628 25.63-25.628 14.132 0 25.629 11.496 25.629 25.628v160.007c0 14.132-11.497 25.629-25.629 25.629l-294.387-0v94.377c0 14.132-11.497 25.629-25.63 25.629s-25.629-11.497-25.629-25.629v-94.377h-294.387c-14.133 0-25.63-11.497-25.63-25.629v-160.008c0-14.131 11.498-25.628 25.63-25.628zM472.579 578.097h80.004c47.218 0 85.632 38.415 85.632 85.632v80.005c0 47.217-38.414 85.631-85.632 85.631h-80.004c-47.218 0-85.632-38.414-85.632-85.631v-80.005c-0-47.217 38.415-85.632 85.632-85.632zM438.206 743.733c0 18.954 15.419 34.373 34.373 34.373h80.004c18.954 0 34.374-15.419 34.374-34.373v-80.005c0-18.954-15.419-34.374-34.374-34.374h-80.004c-18.954 0-34.373 15.42-34.373 34.374l-0 80.005zM232.567 189.333h-80.005c-47.217 0-85.631-38.415-85.631-85.634v-80.003c0-47.218 38.414-85.632 85.631-85.632h80.005c47.217 0 85.632 38.414 85.632 85.632v80.003c0 47.219-38.415 85.634-85.632 85.634zM266.941 23.697c0-18.954-15.42-34.374-34.374-34.374h-80.005c-18.954 0-34.373 15.419-34.373 34.374v80.003c0 18.954 15.419 34.375 34.373 34.375h80.005c18.954 0 34.374-15.42 34.374-34.375v-80.003zM872.599 189.333h-80.003c-47.219 0-85.634-38.415-85.634-85.634v-80.003c0-47.218 38.415-85.632 85.634-85.632h80.003c47.218 0 85.632 38.414 85.632 85.632v80.003c-0.001 47.219-38.415 85.634-85.632 85.634zM906.973 23.697c0-18.954-15.42-34.374-34.375-34.374h-80.003c-18.954 0-34.375 15.419-34.375 34.374v80.003c0 18.954 15.42 34.375 34.375 34.375h80.003c18.954 0 34.375-15.42 34.375-34.375v-80.003zM552.583 189.333h-80.004c-47.218 0-85.632-38.415-85.632-85.634v-80.003c0-47.218 38.415-85.632 85.632-85.632h80.004c47.218 0 85.632 38.414 85.632 85.632v80.003c0 47.219-38.414 85.634-85.632 85.634zM586.957 23.697c0-18.954-15.419-34.374-34.374-34.374h-80.004c-18.954 0-34.373 15.419-34.373 34.374v80.003c0 18.954 15.419 34.375 34.373 34.375h80.004c18.954 0 34.374-15.42 34.374-34.375v-80.003z"  horiz-adv-x="1024" />

    
    <glyph glyph-name="weibiaoti5" unicode="&#58883;" d="M298.667 469.333v-170.667c0-12.8 8.533-21.333 21.333-21.333 12.8 0 21.333 8.533 21.333 21.333v170.667c0 12.8-8.533 21.333-21.333 21.333-12.8 0-21.333-8.533-21.333-21.333zM213.333 426.667v-128c0-12.8 8.533-21.333 21.333-21.333s21.333 8.533 21.333 21.333v128c0 12.8-8.533 21.333-21.333 21.333s-21.333-8.533-21.333-21.333zM384 512v-213.333c0-12.8 8.533-21.333 21.333-21.333 12.8 0 21.333 8.533 21.333 21.333l0 213.333c0 12.8-8.533 21.333-21.333 21.333-12.8 0-21.333-8.533-21.333-21.333zM529.067 234.667h-358.4c-25.6 0-42.667 17.067-42.667 42.667v341.333c0 25.6 17.067 42.667 42.667 42.667h597.333c25.6 0 42.667-17.067 42.667-42.667v-46.933c29.867-4.267 59.733-17.067 85.333-29.867v162.133c0 25.6-17.067 42.667-42.667 42.667h-768c-25.6 0-42.667-17.067-42.667-42.667v-512c0-25.6 17.067-42.667 42.667-42.667h494.933c-25.6 25.6-42.667 55.467-51.2 85.333zM768 533.333c-119.467 0-213.333-93.867-213.333-213.333s93.867-213.333 213.333-213.333 213.333 93.867 213.333 213.333-93.867 213.333-213.333 213.333zM896 405.333l-42.667-170.667h-42.667l-98.133 76.8-29.867-76.8v-42.667h-42.667v42.667l42.667 128h42.667l93.867-72.533 34.133 115.2v42.667h42.667l-0-42.667zM725.333 64h-512c-25.6 0-42.667-17.067-42.667-42.667s17.067-42.667 42.667-42.667h512c25.6 0 42.667 17.067 42.667 42.667s-17.067 42.667-42.667 42.667z"  horiz-adv-x="1024" />

    
    <glyph glyph-name="bumenguanli" unicode="&#58983;" d="M938.879316 192.031987l-63.999084 0 0 159.99522c0 17.666595-14.330457 31.992073-32.002032 31.992073L554.895768 384.01928l0 191.992272 63.989125 0c35.203729 0 64.004063 28.800335 64.004063 63.999084L682.888956 832.003904c0 35.198749-28.800335 63.996096-64.004063 63.996096L426.894613 896c-35.200741 0-63.996096-28.797347-63.996096-63.996096l0-191.994264c0-35.198749 28.795355-63.999084 63.996096-63.999084l63.996096 0 0-191.992272L202.903297 384.018284c-17.671575 0-32.002032-14.325478-32.002032-31.992073l0-159.99522-63.994104 0c-35.200741 0-63.999084-28.800335-63.999084-63.999084l0-191.992272c0-35.203729 28.797347-64.004063 63.999084-64.004063l191.992272 0c35.198749 0 63.999084 28.800335 63.999084 64.004063l0 191.992272c0 35.198749-28.800335 63.999084-63.999084 63.999084l-63.999084 0L234.900349 320.02418l575.97582 0 0-127.993188-63.989125 0c-35.198749 0-63.999084-28.800335-63.999084-63.999084l0-191.992272c0-35.203729 28.800335-64.004063 63.999084-64.004063l191.991276 0c35.198749 0 63.999084 28.800335 63.999084 64.004063l0 191.992272C1002.877404 163.231652 974.07707 192.031987 938.879316 192.031987zM426.894613 832.003904l191.989285 0 0-191.994264L426.894613 640.00964 426.894613 832.003904zM298.899433-63.959369l-191.992272 0 0 191.992272 191.992272 0L298.899433-63.959369zM938.879316-63.959369 746.887044-63.959369l0 191.992272 191.991276 0L938.878321-63.959369z"  horiz-adv-x="1024" />

    
    <glyph glyph-name="brandauthority" unicode="&#59008;" d="M565.203224 394.124592 399.623072 394.124592c-5.505387 0-9.968026 4.462638-9.968026 9.968026L389.655046 524.841725c0 5.505387 4.462638 9.968026 9.968026 9.968026l165.580153 0c38.829354 0 70.418816-31.555693 70.418816-70.343091C635.62204 425.680285 604.032578 394.124592 565.203224 394.124592zM409.591097 414.060643l155.612127 0c27.836999 0 50.483788 22.611997 50.483788 50.406017 0 27.795043-22.646789 50.40704-50.483788 50.40704L409.591097 514.8737 409.591097 414.060643zM397.898801 213.106842c-5.505387 0-9.968026 4.462638-9.968026 9.967002L387.930775 518.387733c0 5.505387 4.462638 9.968026 9.968026 9.968026 5.504364 0 9.967002-4.462638 9.967002-9.968026l0-295.313889C407.865803 217.56948 403.403165 213.106842 397.898801 213.106842zM617.978195 228.156606c-2.905166 0-5.785773 1.26276-7.755638 3.699252l-127.277802 157.37426c-3.461845 4.28049-2.797719 10.556427 1.481747 14.018272 4.28049 3.460822 10.556427 2.799766 14.018272-1.482771l127.278825-157.37426c3.461845-4.28049 2.797719-10.556427-1.482771-14.017248C622.395808 228.88213 620.18035 228.156606 617.978195 228.156606zM507.595178-41.778266c-1.274016 0-2.543939 0.243547-3.738138 0.727571-88.010473 35.611056-162.582889 92.230588-221.644029 168.287821-47.095621 60.649312-84.441181 133.685745-110.997 217.081107-45.099151 141.627624-43.409672 266.219247-43.388183 267.461541 0.094144 5.220908 4.200672 9.484002 9.414417 9.773598 0.580215 0.032746 59.307757 3.572362 134.790916 28.16241 69.286016 22.571065 167.359682 68.040652 241.10936 156.480914 1.976004 2.369977 4.953825 3.691065 8.020674 3.577478 3.083222-0.112564 5.939269-1.647523 7.737218-4.155646 22.48306-31.382754 52.996005-60.07933 90.689489-85.293595 4.576225-3.060709 5.805216-9.251711 2.743484-13.826913-3.059686-4.576225-9.251711-5.802146-13.82589-2.742461-35.639708 23.839965-65.267493 50.754964-88.2356 80.134085-32.440853-36.793998-71.328535-69.009723-115.754351-95.875604-38.476313-23.266913-81.168648-42.594097-126.893039-57.441247-60.677964-19.704784-109.888759-26.181289-129.808438-28.142967 0.544399-30.665417 5.241374-135.666866 42.572608-252.617461 40.340777-126.379339 128.222313-293.019637 317.931003-371.150088 15.835663 4.304026 94.480838 28.739555 174.274162 107.524922 81.305771 80.277348 180.368974 234.955196 193.284121 516.9088-14.765285 2.426259-46.37112 8.321526-86.255503 19.805068-5.290493 1.523703-8.343015 7.046486-6.820336 12.33698 1.521656 5.288446 7.048533 8.344039 12.335956 6.820336 53.04103-15.271822 91.995227-20.522406 92.38306-20.573571 5.103228-0.675382 8.854669-5.125741 8.654101-10.269901-5.067412-129.989563-28.356838-245.12686-69.219501-342.214059-32.831756-78.005608-77.015048-144.605446-131.320884-197.949374-92.876294-91.229794-182.134177-111.763456-185.888687-112.592334C509.035994-41.700495 508.314563-41.778266 507.595178-41.778266z"  horiz-adv-x="1024" />

    
    <glyph glyph-name="icon" unicode="&#58962;" d="M762.164596 754.887099c-14.305821 9.648754-33.714869 5.897314-43.36874-8.393157-9.658987-14.295588-5.897314-33.709753 8.393157-43.36874 106.3604-71.862701 169.864736-191.282534 169.864736-319.445496 0-212.409714-172.807764-385.217479-385.222595-385.217479-212.409714 0-385.217479 172.807764-385.217479 385.217479 0 128.169101 63.49922 247.587911 169.859619 319.445496 14.295588 9.658987 18.057261 29.073152 8.398274 43.36874-9.648754 14.290471-29.068036 18.041912-43.363623 8.393157C137.924279 671.398616 64.144926 532.624992 64.144926 383.679705c0-246.856247 200.828958-447.685205 447.685205-447.685205s447.690322 200.828958 447.690322 447.685205C959.521476 532.624992 885.73803 671.393499 762.164596 754.887099zM400.357294 831.364911c-17.248849 0-31.234375-13.985526-31.234375-31.234375l0-30.476105c0-17.248849 13.985526-31.234375 31.234375-31.234375 17.248849 0 31.234375 13.985526 31.234375 31.234375L431.591669 800.131559C431.590646 817.380408 417.60512 831.364911 400.357294 831.364911zM623.310132 831.364911c-17.248849 0-31.234375-13.985526-31.234375-31.234375l0-30.476105c0-17.248849 13.985526-31.234375 31.234375-31.234375 17.248849 0 31.234375 13.985526 31.234375 31.234375L654.544507 800.131559C654.543484 817.380408 640.558981 831.364911 623.310132 831.364911zM425.353594 668.343023c11.209296-18.047028 41.97602-48.589648 86.157265-48.589648 43.958164 0 75.100442 30.3134 86.574774 48.223305 9.302877 14.528901 5.068436 33.846876-9.455349 43.149752-14.539134 9.307993-33.851992 5.063319-43.149752-9.455349-0.121773-0.198521-13.379729-19.449981-33.968649-19.449981-20.008706 0-32.443923 18.127869-33.277918 19.374256-9.17087 14.427594-28.28009 18.799158-42.829458 9.760295C420.747693 702.251298 416.249239 682.993698 425.353594 668.343023zM730.470757 290.85253 449.365474 290.85253c-17.248849 0-31.233352-13.985526-31.233352-31.234375 0-17.248849 13.985526-31.233352 31.233352-31.233352L730.470757 228.384803c17.248849 0 31.234375 13.985526 31.234375 31.233352C761.704109 276.867004 747.719606 290.85253 730.470757 290.85253zM314.018903 290.85253l-20.822235 0c-17.248849 0-31.234375-13.985526-31.234375-31.234375 0-17.248849 13.985526-31.233352 31.234375-31.233352l20.822235 0c17.248849 0 31.233352 13.985526 31.233352 31.233352C345.252255 276.867004 331.267752 290.85253 314.018903 290.85253zM730.470757 467.844593 449.365474 467.844593c-17.248849 0-31.233352-13.985526-31.233352-31.234375 0-17.248849 13.985526-31.234375 31.233352-31.234375L730.470757 405.375843c17.248849 0 31.234375 13.985526 31.234375 31.234375C761.704109 453.859068 747.719606 467.844593 730.470757 467.844593zM314.018903 467.844593l-20.822235 0c-17.248849 0-31.234375-13.985526-31.234375-31.234375 0-17.248849 13.985526-31.234375 31.234375-31.234375l20.822235 0c17.248849 0 31.233352 13.985526 31.233352 31.234375C345.252255 453.859068 331.267752 467.844593 314.018903 467.844593z"  horiz-adv-x="1024" />

    
    <glyph glyph-name="yidongyunkongzhitaiicon12" unicode="&#59203;" d="M838.4 569.6C838.4 576 838.4 576 832 582.4c-89.6 140.8-262.4 224-448 160C300.8 710.4 236.8 652.8 192 582.4 192 576 185.6 576 185.6 569.6c0-6.4 0-6.4 0-12.8 0-19.2 19.2-38.4 38.4-38.4 12.8 0 19.2 6.4 25.6 12.8 0 6.4 6.4 6.4 6.4 12.8 32 51.2 76.8 89.6 128 115.2 160 70.4 313.6 0 390.4-121.6 0 0 0 0 0 0 6.4-12.8 19.2-19.2 32-19.2 19.2 0 38.4 19.2 38.4 38.4C844.8 563.2 838.4 563.2 838.4 569.6zM409.6 486.4c0 0 83.2-147.2 102.4-166.4 19.2-19.2 51.2-19.2 64 0 19.2 19.2 19.2 51.2 0 64C563.2 403.2 409.6 486.4 409.6 486.4zM512 883.2C236.8 883.2 12.8 659.2 12.8 384s224-499.2 499.2-499.2 499.2 224 499.2 499.2S787.2 883.2 512 883.2zM512-57.6c-243.2 0-441.6 198.4-441.6 441.6 0 243.2 198.4 441.6 441.6 441.6s441.6-198.4 441.6-441.6C953.6 140.8 755.2-57.6 512-57.6z"  horiz-adv-x="1024" />

    
    <glyph glyph-name="quanfenleib" unicode="&#59087;" d="M293.227368 473.892333c-89.831958 0-162.9083 73.076342-162.9083 162.89909S203.39541 799.690514 293.227368 799.690514c89.822748 0 162.89909-73.076342 162.89909-162.89909S383.050116 473.892333 293.227368 473.892333zM293.227368 742.972744c-58.555627 0-106.189508-47.634904-106.189508-106.180298s47.634904-106.180298 106.189508-106.180298c58.546418 0 106.180298 47.634904 106.180298 106.180298S351.773785 742.972744 293.227368 742.972744zM722.196303 58.899714c-89.822748 0-162.89909 73.076342-162.89909 162.89909s73.076342 162.89909 162.89909 162.89909c89.831958 0 162.9083-73.076342 162.9083-162.89909S812.028261 58.899714 722.196303 58.899714zM722.196303 327.980125c-58.546418 0-106.180298-47.634904-106.180298-106.180298 0-58.546418 47.634904-106.180298 106.180298-106.180298 58.555627 0 106.189508 47.634904 106.189508 106.180298C828.38581 280.345222 780.75193 327.980125 722.196303 327.980125zM725.704197 473.892333c-89.822748 0-162.89909 73.076342-162.89909 162.89909S635.881448 799.690514 725.704197 799.690514s162.89909-73.076342 162.89909-162.89909S815.526945 473.892333 725.704197 473.892333zM725.704197 742.972744c-58.546418 0-106.180298-47.634904-106.180298-106.180298s47.634904-106.180298 106.180298-106.180298c58.546418 0 106.180298 47.634904 106.180298 106.180298S784.250614 742.972744 725.704197 742.972744zM293.227368 58.899714c-89.831958 0-162.9083 73.076342-162.9083 162.89909s73.076342 162.89909 162.9083 162.89909c89.822748 0 162.89909-73.076342 162.89909-162.89909S383.050116 58.899714 293.227368 58.899714zM293.227368 327.980125c-58.555627 0-106.189508-47.634904-106.189508-106.180298 0-58.546418 47.634904-106.180298 106.189508-106.180298 58.546418 0 106.180298 47.634904 106.180298 106.180298C399.407666 280.345222 351.773785 327.980125 293.227368 327.980125zM617.926518 278.056086c-7.256264 0-14.511505 2.769067-20.050662 8.308223L375.86753 508.363426c-11.07729 11.078313-11.07729 29.024034 0 40.101323 11.078313 11.078313 29.024034 11.078313 40.101323 0L637.977179 326.465632c11.078313-11.078313 11.078313-29.024034 0-40.101323C632.438023 280.825153 625.182782 278.056086 617.926518 278.056086zM395.918191 278.056086c-7.256264 0-14.511505 2.769067-20.050662 8.308223-11.07729 11.078313-11.07729 29.024034 0 40.101323l222.008326 221.999117c11.078313 11.078313 29.024034 11.078313 40.101323 0s11.078313-29.024034 0-40.101323L415.968853 286.364309C410.43072 280.825153 403.174456 278.056086 395.918191 278.056086z"  horiz-adv-x="1024" />

    
    <glyph glyph-name="renwuguanli" unicode="&#58967;" d="M848 832H176c-30.9 0-56-25.1-56-56v-784c0-30.9 25.1-56 56-56h672c30.9 0 56 25.1 56 56V776c0 30.9-25.1 56-56 56z m-196-56h84v-197.3L672.8 604l-20.8 8.3-20.8-8.3-63.2-25.3V776h84z m196-784H176V776h336v-238.6c0-16.1 13.2-28 28-28 3.4 0 7 0.6 10.4 2L652 552l101.6-40.6c3.5-1.4 7-2 10.4-2 14.8 0 28 12 28 28V776h56v-784zM288 328h224c15.5 0 28 12.5 28 28s-12.5 28-28 28H288c-15.5 0-28-12.5-28-28s12.5-28 28-28zM736 216H288c-15.5 0-28-12.5-28-28s12.5-28 28-28h448c15.5 0 28 12.5 28 28s-12.5 28-28 28z"  horiz-adv-x="1024" />

    
    <glyph glyph-name="xitongjiankong" unicode="&#58980;" d="M932 48H120V748c0 15.5-12.5 28-28 28s-28-12.5-28-28v-700c0-30.9 25.1-56 56-56h812c15.5 0 28 12.5 28 28s-12.5 28-28 28zM204 244h66.7c21.3 0 40.5 11.8 50.1 31l26.6 53.4 54.9-82.3c10.5-15.8 27.9-25 46.5-25 2.1 0 4.3 0.2 6.4 0.4 21 2.4 38.7 16.2 46.1 36L625.6 589l133.3-311c8.9-20.6 29-33.9 51.5-33.9H876c15.5 0 28 12.5 28 28s-12.5 28-28 28h-65.5L677.2 611c-8.9 20.7-28.9 33.9-51.4 33.9h-1.4c-23-0.5-43-14.8-51.1-36.3L449 277l-55 82.4c-11.2 16.8-30 26-50 24.8-20.1-1.3-37.6-12.8-46.6-30.8L270.7 300H204c-15.5 0-28-12.5-28-28s12.5-28 28-28z"  horiz-adv-x="1024" />

    
    <glyph glyph-name="quanxianguanli" unicode="&#58945;" d="M401.876 773.183c27.084 22.648 64.135 34.132 110.123 34.132h0.01c24.52 0 46.714-3.285 65.967-9.764 21.007-7.069 38.427-17.781 53.258-32.749 18.131-18.299 32.598-43.539 42.999-75.021 13.354-40.419 20.124-91.146 20.124-150.773 0-29.037-4.157-58.21-12.357-86.711-8.142-28.298-20.042-55.167-35.377-79.868-5.949-9.587-12.105-18.475-18.296-26.419-19.015-24.397-22.261-57.571-8.335-85.192 6.843-13.571 12.698-23.581 18.429-31.501a79.995 79.995 0 0 1 43.728-30.275l27.859-7.612c2.433-0.999 4.897-2.019 7.369-3.042-0.283 10.018 0.255 20.065 1.67 30.005 2.469 17.351 7.382 33.969 14.548 49.516-0.102 0.028-0.199 0.064-0.302 0.092l-30.059 8.213c-3.595 4.969-7.903 12.877-11.808 20.621 8.322 10.678 16.005 21.865 23.17 33.41 38.412 61.873 59.761 135.03 59.761 208.764 0 143.943-35.669 231.008-86.296 282.102C637.436 872.204 571.852 887.315 512.009 887.315h-0.01c-108.468 0-235.806-49.632-258.72-273.2-2.379-23.128-3.629-48.117-3.629-75.107 0-5.467 0.123-10.934 0.346-16.391 0.508-11.859 1.607-23.68 3.182-35.435 2.053-15.272 4.947-30.425 8.749-45.331 2.529-9.958 5.487-19.796 8.771-29.524 0.192-0.578 0.354-1.156 0.558-1.732 0.549-1.588 1.169-3.153 1.728-4.738 14.064-39.336 34.143-76.367 59.6-109.023-0.377-0.744-0.764-1.475-1.14-2.217-0.69-1.332-1.373-2.672-2.072-3.984-0.315-0.578-0.619-1.137-0.935-1.707a209.32 209.32 0 0 0-2.511-4.49 115.76 115.76 0 0 0-1.606-2.725c-0.162-0.283-0.336-0.572-0.508-0.855a88.014 88.014 0 0 0-2.631-4.014l0.031-0.01c-0.144-0.193-0.295-0.447-0.427-0.629L290.726 268a41.735 41.735 0 0 1-4.88-1.654c-29.203-11.971-60.502-25.436-90.784-38.443-19.348-8.309-38.512-16.553-56.927-24.328-8.353-3.525-17.438-6.674-27.051-10.006-39.143-13.557-87.838-30.436-106.577-84.732a41.692 41.692 0 0 1-2.275-13.574c0-11.84-0.448-30.008-0.937-50.098-0.771-32.326-1.646-68.949-1.138-94.313 0.448-22.662 18.942-40.799 41.603-40.799h516.185c-9.033 26.542-5.019 56.575 12.056 80H80.177c0.235 17.132 0.679 35.705 1.091 53.008l0.004 0.159 0.032 1.343c0.403 16.589 0.763 31.346 0.884 43.023 2.171 4.111 5.498 7.854 11.763 11.953 11.144 7.292 27.499 12.957 43.357 18.45 10.406 3.606 21.166 7.336 31.945 11.886 16.986 7.172 34.87 14.853 52.166 22.281l5.217 2.24 3.025 1.301c28.202 12.114 57.338 24.63 84.342 35.729l27.844 7.599a80.008 80.008 0 0 1 45.518 32.821c0.415 0.61 0.819 1.223 1.216 1.842a181.802 181.802 0 0 1 3.616 5.654c0.223 0.366 0.517 0.854 0.855 1.429a196.085 196.085 0 0 1 2.136 3.632 281.762 281.762 0 0 1 3.355 5.987c0.287 0.521 0.567 1.034 0.853 1.557l0.187 0.342c0.133 0.244 0.266 0.489 0.396 0.735a323.62 323.62 0 0 1 1.988 3.808l0.503 0.975 0.333 0.648 0.24 0.466c0.306 0.591 0.611 1.183 0.913 1.779 13.995 27.644 10.77 60.883-8.28 85.319-19.998 25.653-35.915 54.798-47.313 86.631a210.276 210.276 0 0 1-1.218 3.333l-0.142 0.379a100.541 100.541 0 0 1-0.508 1.549c-2.758 8.173-5.123 16.125-7.031 23.635l-0.02 0.08c-2.964 11.617-5.313 23.802-6.976 36.177-1.302 9.72-2.157 19.196-2.544 28.168a323.651 323.651 0 0 0-0.275 13.039c0 23.704 1.079 46.22 3.212 66.95 8.147 79.478 31.367 135.74 69.015 167.223zM986.395 283.927c-50.13 50.132-131.408 50.132-181.539 0-40.854-40.853-48.409-102.39-22.677-150.899L614.244-34.908c-14.722-14.722-14.722-38.593 0-53.315 14.723-14.722 38.593-14.722 53.315 0l9.824 9.824 39.059-39.059c1.834-1.835 4.236-2.407 5.365-1.278l30.284 30.285c1.129 1.129 0.557 3.531-1.277 5.365l-39.059 39.059 16.404 16.404 16.989-16.99c1.835-1.835 4.237-2.406 5.366-1.277l30.284 30.284c1.129 1.129 0.557 3.531-1.277 5.365l-16.99 16.99 72.963 72.962c48.51-25.732 110.047-18.177 150.899 22.677 50.133 50.131 50.133 131.409 0.002 181.539z m-46.871-134.668c-24.206-24.206-63.592-24.206-87.798 0s-24.206 63.592 0 87.798 63.592 24.206 87.798 0 24.206-63.592 0-87.798z"  horiz-adv-x="1024" />

    
    <glyph glyph-name="jiaoseguanli" unicode="&#58915;" d="M333.504-126.496v307.104h31.36c28.992 0 52.352 23.36 52.352 52.32v217.856c0 28.96-23.36 52.32-52.352 52.32H198.112c-28.928 0-52.288-23.36-52.288-52.32v-217.856c0-28.928 23.36-52.32 52.288-52.32h31.392v-307.104H161.792v245.504a120.416 120.416 0 0 0-83.072 113.92v217.856a119.488 119.488 0 0 0 119.392 119.392h166.752c65.888 0 120.064-53.504 120.064-119.392v-217.856a120.48 120.48 0 0 0-83.072-113.92v-245.504h-68.352z m547.136 88a64.64 64.64 0 1 0 0 129.28 64.64 64.64 0 0 0 0-129.28z m-252.96 30.784v5.568a30.432 30.432 0 0 0-12.352 15.328 50.976 50.976 0 0 0-3.616 14.176V348.608h-48.672a33.6 33.6 0 0 0-23.328 11.104 32.224 32.224 0 0 0-8.608 24 32.96 32.96 0 0 0 31.936 31.968h48.672V737.568c0 6.784 1.824 13.504 6.112 19.072 6.816 9.856 17.216 16 28.352 16h86.176c9.824 0 17.792-4.32 23.968-10.464 6.176-6.176 9.184-15.392 9.184-24.032a33.664 33.664 0 0 0-32.576-32.608H679.36v-289.28h53.6c18.432 0 33.792-15.36 33.792-33.856 0-18.432-15.328-33.856-33.792-33.856H679.36v-288.64h52.992c18.4 0 33.792-15.424 33.792-33.856 0-18.496-15.36-33.856-33.792-33.856h-104.672v0.096z m252.96 325.536a64.64 64.64 0 1 0 0.064 129.344 64.64 64.64 0 0 0-0.064-129.344zM281.184 617.568A138.624 138.624 0 0 0 142.72 756.032 138.656 138.656 0 0 0 281.184 894.496a138.624 138.624 0 0 0 138.432-138.464c-0.576-76.928-62.08-138.464-138.432-138.464z m0 208.576c-38.752 0-70.784-32-70.784-70.752 0-38.784 32-70.784 70.784-70.784s70.784 32 70.784 70.784c0 38.784-32 70.752-70.784 70.752zM880.64 674.176a64.64 64.64 0 1 0 0 129.216 64.64 64.64 0 1 0 0-129.216z"  horiz-adv-x="1024" />

    
    <glyph glyph-name="taizhangfenlei" unicode="&#58932;" d="M653.088 544.704a174.848 174.848 0 0 1-174.848-174.944 174.848 174.848 0 0 1 174.848-174.816 174.848 174.848 0 0 1 174.88 174.816 174.848 174.848 0 0 1-174.88 174.944z m-9.44-268.768a4.608 4.608 0 0 0-4.576-4.608h-79.904a4.672 4.672 0 0 0-4.64 4.608v79.936c0 2.592 2.08 4.64 4.64 4.64h79.904c2.528 0 4.576-2.016 4.576-4.64v-79.936z m0 109.728c0-2.56-2.016-4.576-4.576-4.576h-79.904a4.608 4.608 0 0 0-4.64 4.576v79.968c0 2.464 2.08 4.576 4.64 4.576h79.904c2.528 0 4.576-2.112 4.576-4.576v-79.968z m26.976 42.368l40.704 40.64a3.2 3.2 0 0 0 4.672 0l40.672-40.64a3.328 3.328 0 0 0 0-4.736l-40.672-40.64a3.2 3.2 0 0 0-4.672 0l-40.704 40.64a3.456 3.456 0 0 0 0 4.736z m87.616-152.096a4.672 4.672 0 0 0-4.64-4.608h-79.904a4.608 4.608 0 0 0-4.576 4.608v79.936c0 2.592 2.016 4.64 4.576 4.64h79.904c2.528 0 4.64-2.016 4.64-4.64v-79.936zM937.152 833.408H87.36c-48.256 0-87.36-40.672-87.36-90.816v-561.184c0-50.272 44.896-93.152 93.184-93.152h372.544v-93.056H232.832v-60.608h558.944V-4.8h-232.864v93.056H931.456c48.32 0 93.088 42.88 93.088 93.152V742.592c0 50.144-39.008 90.816-87.392 90.816z m26.912-684.48l-285.984 2.464 0.128 0.448-29.088-0.128-14.72 0.128 0.032-0.256-573.824-2.656V772.8h903.456v-623.872zM307.104 600.928l-49.856-0.256a12.32 12.32 0 1 1 0-24.608l49.888 0.096c6.848 0 12.384 5.472 12.384 12.32s-5.568 12.448-12.416 12.448zM393.632 600.928l-49.888-0.224a12.32 12.32 0 1 1 0-24.608l49.888 0.096a12.352 12.352 0 1 1 0 24.736zM480.096 600.928l-49.888-0.224a12.32 12.32 0 1 1 0-24.608l49.888 0.096a12.352 12.352 0 1 1 0 24.736zM307.104 539.104l-49.888-0.096a12.352 12.352 0 1 1 0-24.768l49.888 0.096c6.848 0 12.384 5.504 12.384 12.32s-5.536 12.448-12.384 12.448zM393.632 539.104l-49.888-0.096c-6.848 0-12.384-5.504-12.384-12.32s5.536-12.448 12.384-12.448l49.888 0.096a12.416 12.416 0 0 1 0 24.768zM480.096 539.104l-49.888-0.096a12.352 12.352 0 1 1 0-24.768l49.888 0.096a12.352 12.352 0 1 1 0 24.768zM307.104 477.28l-49.888-0.096a12.352 12.352 0 0 1-12.384-12.32 12.48 12.48 0 0 1 12.384-12.448l49.888 0.096a12.416 12.416 0 0 1 12.384 12.448 12.288 12.288 0 0 1-12.384 12.32zM393.632 477.28l-49.888-0.096a12.32 12.32 0 0 1-12.384-12.32c0-6.816 5.536-12.448 12.384-12.448l49.888 0.096a12.384 12.384 0 0 1 0 24.768zM480.096 477.28l-49.888-0.096a12.352 12.352 0 0 1-12.384-12.32 12.48 12.48 0 0 1 12.384-12.448l49.888 0.096a12.448 12.448 0 0 1 12.384 12.448 12.352 12.352 0 0 1-12.384 12.32zM200.8 660.608v-399.936h336.192V660.608H200.8z m311.2-381.856H225.824V642.688h286.176v-363.936z"  horiz-adv-x="1024" />

    
    <glyph glyph-name="navicon-kcfltj" unicode="&#58973;" d="M988.16-114.68799999999999H56.32c-14.336 0-25.6 11.264-25.6 25.6V807.936c0 14.336 11.264 25.6 25.6 25.6h931.84c14.336 0 25.6-11.264 25.6-25.6v-897.024c0-14.336-11.264-25.6-25.6-25.6z m-906.24 51.2h880.64V782.336H81.92v-845.824zM988.16 584.192H56.32c-14.336 0-25.6 11.264-25.6 25.6V807.936c0 14.336 11.264 25.6 25.6 25.6h931.84c14.336 0 25.6-11.264 25.6-25.6v-198.144c0-14.336-11.264-25.6-25.6-25.6z m-906.24 51.2h880.64V782.336H81.92v-146.944zM289.28 240.64c-6.144 0-11.776 2.048-16.896 6.144-10.752 9.216-11.776 25.6-2.56 36.352l140.288 159.744c4.608 5.12 10.752 8.192 17.92 8.704 6.656 0.512 13.312-2.048 18.432-6.656l112.128-99.84 141.824 151.04c9.728 10.24 26.112 10.752 36.352 1.024 10.24-9.728 10.752-26.112 1.024-36.352l-158.72-168.96c-9.728-10.24-25.088-10.752-35.84-1.536L431.616 389.632l-123.392-140.288c-4.608-5.632-11.776-8.704-18.944-8.704zM338.944 100.35199999999998m-37.888 0a37.888 37.888 0 1 1 75.776 0 37.888 37.888 0 1 1-75.776 0ZM518.144 100.35199999999998m-37.888 0a37.888 37.888 0 1 1 75.776 0 37.888 37.888 0 1 1-75.776 0ZM696.832 100.35199999999998m-37.888 0a37.888 37.888 0 1 1 75.776 0 37.888 37.888 0 1 1-75.776 0Z"  horiz-adv-x="1024" />

    
    <glyph glyph-name="company" unicode="&#58906;" d="M438.857143 749.714286c0 43.885714-29.257143 73.142857-73.142857 73.142857H146.285714c-43.885714 0-73.142857-29.257143-73.142857-73.142857v-731.428572c0-43.885714 29.257143-73.142857 73.142857-73.142857h292.571429V749.714286zM146.285714 896h219.428572c80.457143 0 146.285714-65.828571 146.285714-146.285714v-877.714286H146.285714c-80.457143 0-146.285714 65.828571-146.285714 146.285714V749.714286C0 830.171429 65.828571 896 146.285714 896z m36.571429-219.428571h146.285714c21.942857 0 36.571429-14.628571 36.571429-36.571429s-14.628571-36.571429-36.571429-36.571429h-146.285714c-21.942857 0-36.571429 14.628571-36.571429 36.571429s14.628571 36.571429 36.571429 36.571429z m0-219.428572h146.285714c21.942857 0 36.571429-14.628571 36.571429-36.571428s-14.628571-36.571429-36.571429-36.571429h-146.285714c-21.942857 0-36.571429 14.628571-36.571429 36.571429s14.628571 36.571429 36.571429 36.571428z m0-219.428571h146.285714c21.942857 0 36.571429-14.628571 36.571429-36.571429s-14.628571-36.571429-36.571429-36.571428h-146.285714c-21.942857 0-36.571429 14.628571-36.571429 36.571428s14.628571 36.571429 36.571429 36.571429z m512 219.428571c21.942857 0 36.571429-14.628571 36.571428-36.571428v-73.142858c0-21.942857-14.628571-36.571429-36.571428-36.571428S658.285714 325.48571400000003 658.285714 347.42857100000003v73.142858c0 21.942857 14.628571 36.571429 36.571429 36.571428z m0-219.428571c21.942857 0 36.571429-14.628571 36.571428-36.571429v-73.142857c0-21.942857-14.628571-36.571429-36.571428-36.571429s-36.571429 14.628571-36.571429 36.571429v73.142857c0 21.942857 14.628571 36.571429 36.571429 36.571429zM512-54.85714299999995h365.714286V457.142857c0 43.885714-29.257143 73.142857-73.142857 73.142857H512v-585.142857zM438.857143 603.4285709999999h365.714286c80.457143 0 146.285714-65.828571 146.285714-146.285714v-585.142857H438.857143V603.4285709999999z"  horiz-adv-x="1024" />

    
    <glyph glyph-name="guanligongju" unicode="&#58908;" d="M916.4-116.4c-275.733333 0-500 224.266667-500 500s224.266667 500 500 500 500-224.266667 500-500-224.266667-500-500-500z m0 940c-242.666667 0-440-197.333333-440-440s197.333333-440 440-440 440 197.333333 440 440-197.333333 440-440 440zM1164.133333 222.533333L968.4 414.666667 1106.666667 562.8c10.533333-1.466667 22.533333 2.8 31.6 12.533333l15.466666 16.533334c13.333333 14.266667 6.533333 25.733333-5.066666 36.4-11.466667 10.8-23.333333 16.8-36.666667 2.4l-15.466667-16.533334c-9.066667-9.6-12.4-22-10.266666-32.4L948.533333 434.266667l-22.933333 22.533333c-6.666667 6.533333-14.266667 12.266667-22.133333 16.666667 9.466667 30 1.466667 63.333333-21.333334 85.866666l-74.8 73.333334c-15.866667 15.6-36.933333 24.266667-59.2 24.266666-11.866667 0-23.333333-2.4-34.133333-7.2-4.133333-1.733333-6.666667-5.866667-6.666667-10.266666s2.8-8.4 6.933334-10.133334c4.4-1.866667 8.533333-4.4 11.866666-7.866666l52.266667-51.333334c14.533333-14.266667 14.666667-37.6 0.4-52.133333-6.933333-7.066667-16.4-11.066667-26.266667-11.066667-9.733333 0-18.933333 3.733333-25.866666 10.533334l-52.266667 51.333333c-3.466667 3.333333-6.133333 7.333333-8 11.733333-1.733333 4-5.733333 6.666667-10.133333 6.666667s-8.4-2.666667-10.133334-6.8c-13.333333-32.133333-6-68.666667 18.8-92.933333l74.8-73.466667c15.866667-15.6 36.933333-24.133333 59.2-24.133333 9.2 0 18.266667 1.466667 26.933334 4.4 3.466667-5.866667 7.466667-11.333333 12.133333-16.533334L696.266667 226.133333c-27.733333-29.733333-31.866667-71.066667-9.2-92.133333l0.533333-0.533333c22.666667-21.066667 63.6-14.133333 91.333333 15.6l139.333334 149.466666L1081.333333 138.4c18.133333-17.866667 40.8-28.133333 62-28.133333 14.666667 0 27.2 4.933333 36.266667 14.266666 23.2 23.466667 16.4 66.533333-15.466667 98zM830.933333 419.466667c-1.6 0-3.333333-0.4-4.8-1.066667-8.4-4.133333-17.866667-6.266667-27.333333-6.266667-16.4 0-32 6.4-43.733333 17.866667l-74.8 73.466667c-12.933333 12.666667-19.466667 29.866667-18.666667 47.2l49.733333-48.8c11.066667-10.933333 25.733333-16.933333 41.333334-16.933334 16 0 30.933333 6.266667 42.133333 17.6 22.8 23.2 22.4 60.666667-0.8 83.466667L744.4 634.666667c17.466667 0.933333 34.8-5.333333 47.466667-17.733334l74.666666-73.466666c18.8-18.4 24-46.933333 12.933334-70.8-1.2-2.666667-1.333333-5.866667-0.266667-8.666667 1.066667-2.8 3.2-5.066667 6-6.133333 8.8-3.733333 17.466667-9.6 24.933333-16.933334l23.333334-22.933333-9.2-9.866667c-20.4 9.466667-48.266667 3.866667-70.666667-14.666666-5.2 6-9.466667 12.666667-12.533333 19.466666-1.2 2.666667-3.466667 4.8-6.266667 5.866667-1.333333 0.533333-2.666667 0.666667-3.866667 0.666667z m-68.133333-255.333334c-19.066667-20.4-46.533333-27.066667-60-14.533333l-0.533333 0.533333c-13.466667 12.533333-8.8 40.533333 10.266666 60.933334l148.133334 158.8c19.066667 20.4 46.533333 27.066667 60 14.533333l0.533333-0.533333c13.466667-12.533333 8.8-40.533333-10.266667-60.933334L762.8 164.133333zM1163.866667 140c-6.133333-6.266667-14.533333-7.6-20.533334-7.6-15.2 0-32.666667 8.133333-46.533333 21.733333L933.066667 315.066667c18.533333 24.133333 22.933333 53.733333 11.6 74.133333l8.666666 9.333333L1148.533333 206.666667c22.4-21.866667 29.466667-52.4 15.333334-66.666667z"  horiz-adv-x="1821" />

    
    <glyph glyph-name="dingdanguanli" unicode="&#58916;" d="M928-128h-832a32 32 0 0 0-32 32v896a32 32 0 0 0 32 32h128a32 32 0 0 0 0-64H128v-832h768V768h-96a32 32 0 0 0 0 64h128a32 32 0 0 0 32-32v-896a32 32 0 0 0-32-32zM672 704h-320a32 32 0 0 0-32 32v128a32 32 0 0 0 32 32h320a32 32 0 0 0 32-32v-128a32 32 0 0 0-32-32zM384 768h256V832H384zM736 512h-256a32 32 0 0 0 0 64h256a32 32 0 0 0 0-64zM736 320h-256a32 32 0 0 0 0 64h256a32 32 0 0 0 0-64zM352 512h-64a32 32 0 0 0 0 64h64a32 32 0 0 0 0-64zM352 320h-64a32 32 0 0 0 0 64h64a32 32 0 0 0 0-64zM736 128h-256a32 32 0 0 0 0 64h256a32 32 0 0 0 0-64zM352 128h-64a32 32 0 0 0 0 64h64a32 32 0 0 0 0-64z"  horiz-adv-x="1024" />

    
    <glyph glyph-name="jifenguanli" unicode="&#58917;" d="M293.76 395.52C128 395.52 0 465.92 0 558.72V732.8a32 32 0 0 0 32 32 32 32 0 0 0 32-32v-174.08C64 512 162.56 459.52 293.76 459.52S523.52 512 523.52 558.72V732.8a32 32 0 0 0 32 32 32 32 0 0 0 32-32v-174.08c0-92.8-126.08-163.2-293.76-163.2zM293.76 220.8C128 220.8 0 291.2 0 384V558.72a32 32 0 0 0 64 0V384c0-46.72 98.56-99.2 229.76-99.2a402.56 402.56 0 0 1 161.28 30.72 32 32 0 0 0 26.24-58.24 472.96 472.96 0 0 0-187.52-36.48zM293.76 46.72C128 46.72 0 116.48 0 209.28V384a32 32 0 0 0 32 32 32 32 0 0 0 32-32v-174.72c0-46.72 98.56-98.56 229.76-98.56a412.16 412.16 0 0 1 161.28 30.08 32 32 0 0 0 26.24-58.24 472.96 472.96 0 0 0-187.52-35.84zM293.76 570.24C128 570.24 0 640 0 732.8S128 896 293.76 896s293.76-69.76 293.76-163.2-126.08-162.56-293.76-162.56z m0 261.76C162.56 832 64 779.52 64 732.8s98.56-98.56 229.76-98.56 229.76 51.84 229.76 98.56S425.6 832 293.76 832zM730.24 46.72c-167.68 0-293.76 69.76-293.76 162.56V384a32 32 0 0 0 32 32 32 32 0 0 0 32-32v-174.72c0-46.72 97.92-98.56 229.76-98.56S960 162.56 960 209.28V384a32 32 0 0 0 64 0v-174.72c0-92.8-128-162.56-293.76-162.56zM730.24-128c-167.68 0-293.76 69.76-293.76 163.2v174.08a32 32 0 0 0 32 32 32 32 0 0 0 32-32v-174.08c0-46.72 97.92-99.2 229.76-99.2S960-11.52 960 35.2v174.08a32 32 0 0 0 64 0v-174.08c0-93.44-128-163.2-293.76-163.2zM730.24 220.8c-167.68 0-293.76 70.4-293.76 163.2s128 163.2 293.76 163.2S1024 476.8 1024 384s-128-163.2-293.76-163.2z m0 262.4c-131.84 0-229.76-52.48-229.76-99.2s97.92-99.2 229.76-99.2S960 337.28 960 384s-98.56 99.2-229.76 99.2z"  horiz-adv-x="1024" />

    
    <glyph glyph-name="fenlei" unicode="&#58904;" d="M534.5 347.5V769.3c0 13-10.5 23.5-23.5 23.5s-23.5-10.5-23.5-23.5v-422c8.1 1.4 16.3 2.5 24.7 2.5 7.6-0.1 15-1.2 22.3-2.3zM158.8 299v-300.1c0-13 10.5-23.5 23.5-23.5s23.5 10.5 23.5 23.5V298.8c-7.3-1.2-14.6-2.2-22.2-2.2-8.6-0.1-16.7 1-24.8 2.4z m704.4 400.4v69.9c0 13-10.5 23.5-23.5 23.5s-23.5-10.5-23.5-23.5v-70.1c8.1 1.4 16.3 2.5 24.7 2.5 7.7-0.1 15-1.2 22.3-2.3zM205.7 580V769.3c0 13-10.5 23.5-23.5 23.5s-23.5-10.5-23.5-23.5v-189.5c8.1 1.4 16.3 2.5 24.7 2.5 7.7 0 15.1-1.1 22.3-2.3z m281.8-513.5v-67.6c0-13 10.5-23.5 23.5-23.5s23.5 10.5 23.5 23.5v67.3c-7.3-1.2-14.6-2.2-22.2-2.2-8.5 0-16.7 1.1-24.8 2.5z m353.7 612.9c-65.6 0-118.9-53.4-118.9-119s53.4-118.9 118.9-118.9c65.6 0 118.9 53.4 118.9 118.9 0 65.7-53.3 119-118.9 119z m0-190.9c-39.7 0-72 32.3-72 72s32.3 72 72 72 72-32.3 72-72-32.3-72-72-72z m-25-70.1v-419.5c0-13 10.5-23.5 23.5-23.5s23.5 10.5 23.5 23.5V418.1c-7.3-1.2-14.6-2.2-22.2-2.2-8.5 0-16.7 1.1-24.8 2.5zM511 326.6c-65.6 0-118.9-53.4-118.9-119S445.5 88.7 511 88.7c65.6 0 118.9 53.4 118.9 118.9 0 65.6-53.3 119-118.9 119z m0-191c-39.7 0-72 32.3-72 72s32.3 72 72 72 72-32.3 72-72-32.3-72-72-72zM182.3 562.2c-65.6 0-118.9-53.4-118.9-119s53.4-118.9 118.9-118.9c65.6 0 118.9 53.4 118.9 118.9 0 65.7-53.3 119-118.9 119z m0-190.9c-39.7 0-72 32.3-72 72s32.3 72 72 72 72-32.3 72-72-32.3-72-72-72z"  horiz-adv-x="1024" />

    
    <glyph glyph-name="fenlei1" unicode="&#59139;" d="M464-64C243.2-64 64 115.2 64 336s179.2 400 400 400c17.6 0 32-14.4 32-32v-336h336c17.6 0 32-14.4 32-32 0-220.8-179.2-400-400-400z m-32 734.4c-169.6-16-304-160-304-334.4 0-185.6 150.4-336 336-336 174.4 0 318.4 134.4 334.4 304H464c-17.6 0-32 14.4-32 32V670.4zM928 432H592c-17.6 0-32 14.4-32 32V800c0 17.6 14.4 32 32 32 203.2 0 368-164.8 368-368 0-17.6-14.4-32-32-32z m-304 64h270.4C880 638.4 766.4 752 624 766.4V496z"  horiz-adv-x="1024" />

    
    <glyph glyph-name="shouquan" unicode="&#59224;" d="M524.8 288c-160 0-288 128-288 288s128 288 288 288 288-128 288-288-128-288-288-288z m0 512c-121.6 0-224-102.4-224-224s102.4-224 224-224 224 102.4 224 224-102.4 224-224 224zM140.8-96c-19.2 0-32 12.8-32 32 0 230.4 185.6 416 416 416 102.4 0 198.4-38.4 275.2-102.4 12.8-12.8 12.8-32 0-44.8-12.8-12.8-32-12.8-44.8 0-64 57.6-147.2 89.6-236.8 89.6-192 0-352-160-352-352 6.4-25.6-6.4-38.4-25.6-38.4zM640-96L499.2 44.8c-12.8 12.8-12.8 32 0 44.8 12.8 12.8 32 12.8 44.8 0l96-96L934.4 288c12.8 12.8 32 12.8 44.8 0s12.8-32 0-44.8L640-96z"  horiz-adv-x="1024" />

    
    <glyph glyph-name="daizi-" unicode="&#58889;" d="M842.392-80.135H217.936c-55.924 0-101.422 45.497-101.422 101.422l0.033 1.116 35.655 599.511c0.314 55.657 45.69 100.835 101.42 100.835h553.084c55.73 0 101.105-45.178 101.42-100.835l35.687-600.07v-0.557c0-55.925-45.497-101.422-101.421-101.422zM154.08 20.763c0.28-34.972 28.818-63.334 63.856-63.334h624.456c35.038 0 63.574 28.362 63.856 63.334l-35.684 600.006v0.557c0 35.212-28.647 63.858-63.858 63.858H253.621c-35.212 0-63.858-28.646-63.858-63.858l-0.033-1.115-35.65-599.448zM643.319 494.128c-10.373 0-18.782 8.408-18.782 18.782V725.819c0 51.31-40.971 93.885-92.28 94.383-51.811 0.502-94.119-41.498-94.119-93.194V512.91c0-10.374-8.408-18.782-18.782-18.782-10.373 0-18.781 8.408-18.781 18.782V725.743c0 72.28 58.111 131.826 130.392 132.027 72.272 0.201 131.134-58.536 131.134-130.762V512.91c0-10.374-8.41-18.782-18.782-18.782zM418.797 460.844c-28.74 0-52.12 23.38-52.12 52.119s23.38 52.12 52.12 52.12 52.12-23.381 52.12-52.12-23.381-52.12-52.12-52.12z m0 85.457c-18.383 0-33.338-14.955-33.338-33.338s14.955-33.338 33.338-33.338 33.337 14.955 33.337 33.338-14.955 33.338-33.337 33.338zM643.017 460.844c-28.739 0-52.12 23.38-52.12 52.119s23.381 52.12 52.12 52.12 52.12-23.381 52.12-52.12-23.38-52.12-52.12-52.12z m0 85.457c-18.382 0-33.337-14.955-33.337-33.338s14.955-33.338 33.337-33.338 33.338 14.955 33.338 33.338-14.954 33.338-33.338 33.338z"  horiz-adv-x="1024" />

    
    <glyph glyph-name="renqunfenlei" unicode="&#59121;" d="M429.423384 377.622722c-142.914259 0-259.188639 116.27438-259.18864 259.188639S286.509124 896 429.423384 896s259.188639-116.27438 259.188639-259.188639-116.27438-259.188639-259.188639-259.188639z m0 475.82156C309.926928 853.444282 212.790462 756.259181 212.790462 636.811361S309.926928 420.17844 429.423384 420.17844s216.632921 97.185101 216.632921 216.632921S548.871204 853.444282 429.423384 853.444282zM598.758664 48.156354H67.456606l-3.319346 17.253304c-0.291811 1.507688-7.027773 37.692207 4.340684 88.564528 10.310642 46.203351 38.129923 114.620786 112.176872 178.223347a21.277859 21.277859 0 1 0 27.734169-32.281552C156.726344 255.536447 123.776059 204.007552 110.522993 146.788349a224.378062 224.378062 0 0 1-5.969959-56.064118h494.20563a21.277859 21.277859 0 0 0 0-42.555718zM835.307661-128a21.277859 21.277859 0 0 0-21.277859 21.277859V170.121042c0 7.611394 2.638455 13.642147 19.174391 36.476329 8.170698 11.283345 19.454042 26.275116 33.704129 44.561916 22.773388 29.339128 45.838587 58.045999 48.404089 61.231599a19.28382 19.28382 0 0 1 2.018357 20.888778c-3.343664 6.723803-11.502203 13.90964-24.317553 13.90964H644.402711a21.277859 21.277859 0 0 0 0 42.555718h248.561869c27.02896 0 50.957432-14.371674 62.471793-37.509826 10.772676-21.66694 8.401715-46.203351-6.346881-65.730346l-0.40124-0.510668c-39.45523-48.999869-82.874221-105.136941-92.102732-120.371888v-272.344435a21.277859 21.277859 0 0 0-21.277859-21.277859z m96.808179 427.295883zM699.931844-55.679597a21.277859 21.277859 0 0 0-21.277859 21.277859V163.530985L594.442298 286.918249c-14.444627 19.454042-16.694 43.771595-6.006435 65.280471 11.502203 23.101675 35.442834 37.509826 62.471794 37.509826a21.277859 21.277859 0 0 0 0-42.555718c-12.863986 0-21.022525-7.185837-24.317553-13.909641a19.308137 19.308137 0 0 1 2.176421-21.107636q0.316128-0.413398 0.607938-0.838955l88.236242-129.19916a21.277859 21.277859 0 0 0 3.647633-12.000712v-204.510621a21.277859 21.277859 0 0 0-21.326494-21.2657z"  horiz-adv-x="1024" />

    
    <glyph glyph-name="dingdan" unicode="&#59140;" d="M779.002161-128H245.034718C159.230156-128 89.369508-59.897239 89.369508 23.82982V678.526002c0 83.727059 69.811477 151.82982 155.628331 151.82982h64.550108a21.512605 21.512605 0 0 0 0-43.02521h-64.513229c-62.079232 0.024586-112.64-48.790588-112.64-108.80461v-654.696182c0-60.001729 50.511597-108.80461 112.603121-108.80461h534.004322c62.091525 0 112.603121 48.815174 112.603121 108.80461V678.526002c0 60.001729-50.511597 108.80461-112.603121 108.80461h-32.49018a21.512605 21.512605 0 0 0 0 43.02521h32.49018c85.816855 0 155.628331-68.115054 155.628331-151.82982v-654.696182C934.593613-59.897239 864.782137-128 779.002161-128zM660.891813 749.714286H404.068187a31.383818 31.383818 0 0 0-31.346939 31.346938v83.591837A31.383818 31.383818 0 0 0 404.068187 896h256.823626a31.383818 31.383818 0 0 0 31.346939-31.346939v-83.591837a31.383818 31.383818 0 0 0-31.346939-31.346938zM415.734166 792.739496h233.479375V852.97479H415.734166zM764.889892 536.014214H247.788331a21.512605 21.512605 0 0 0 0 43.02521h517.101561a21.512605 21.512605 0 0 0 0-43.02521zM764.889892 336.63539H247.788331a21.512605 21.512605 0 0 0 0 43.02521h517.101561a21.512605 21.512605 0 0 0 0-43.02521zM640.178247 137.26886h-392.389916a21.512605 21.512605 0 0 0 0 43.02521h392.389916a21.512605 21.512605 0 1 0 0-43.02521z"  horiz-adv-x="1024" />

    
    <glyph glyph-name="jiankong" unicode="&#58909;" d="M128 768c-23.552 0-42.496-18.944-42.496-42.496v-512c0-23.552 18.944-42.496 42.496-42.496h768c23.552 0 42.496 18.944 42.496 42.496v512c0 23.552-18.944 42.496-42.496 42.496H128z m0 42.496h768c47.104 0 85.504-38.4 85.504-85.504v-512c0-47.104-38.4-85.504-85.504-85.504H128c-47.104 0-85.504 38.4-85.504 85.504v512c0 47.616 38.4 85.504 85.504 85.504zM846.336 408.576l-150.528 215.04c-2.56 4.096-4.608 6.656-7.168 9.728-4.608 4.608-9.216 6.656-14.336 6.656-5.12 0-10.24-2.048-14.336-6.656-3.584-4.096-3.584-5.12-7.168-9.728l-177.152-252.928-128 163.84c-8.192 10.24-19.968 10.752-28.16 5.632-4.608-3.072-6.656-5.632-9.728-9.728L167.936 322.56c-8.192-11.776-6.144-21.504 5.632-29.696 11.776-8.192 21.504-6.144 29.696 5.632L330.24 486.4l128.512-164.864c8.704-11.264 21.504-11.264 29.696-3.584 3.072 2.56 7.168 8.704 10.752 13.824l174.08 248.832 137.216-196.096c8.192-11.776 17.92-13.312 29.696-5.12 12.288 7.68 14.336 17.408 6.144 29.184zM149.504 0h725.504c14.336 0 21.504-7.168 21.504-21.504 0-14.336-7.168-21.504-21.504-21.504H149.504c-14.336 0-21.504 7.168-21.504 21.504 0 14.336 7.168 21.504 21.504 21.504zM362.496 170.496c14.336 0 21.504-7.168 21.504-21.504v-170.496c0-14.336-7.168-21.504-21.504-21.504-14.336 0-21.504 7.168-21.504 21.504v170.496c0.512 14.336 7.68 21.504 21.504 21.504zM661.504 170.496c14.336 0 21.504-7.168 21.504-21.504v-170.496c0-14.336-7.168-21.504-21.504-21.504-14.336 0-21.504 7.168-21.504 21.504v170.496c0 14.336 7.168 21.504 21.504 21.504z"  horiz-adv-x="1024" />

    
    <glyph glyph-name="chanpinguanli" unicode="&#58914;" d="M513.4 412.8c-8.5 0-17 2.5-24.3 7.4L86.9 593.1c-3.7 1.6-7.1 3.9-10 6.8-16.9 16.9-16.8 44.4 0.2 61.4 3.1 3.1 6.9 5.6 11 7.2L492 825.7c14.5 9.6 33.5 9.7 47.9 0.2l395.9-156.7c4.1-1.6 7.8-4 10.8-7.1 16.9-16.9 16.8-44.4-0.2-61.4-2.8-2.8-6.2-5.1-9.9-6.7L538.2 420.6c-7.4-5.2-16.1-7.8-24.8-7.8z m-349 216.7l348.9-150 346.6 150.9-343.6 136.1-351.9-137z m759.4-6.2zM501.4 775.2zM451.7-63.2c-5.5 0-11.2 1.1-16.6 3.3l-345 141c-10.7 4.4-19 12.6-23.6 23-3.5 8.1-4.4 17-2.8 25.5L63.3 512c0 4.2 0.8 8.3 2.4 12.2 9.1 22 34.5 32.5 56.8 23.4 0.2-0.1 0.5-0.2 0.7-0.3l345.8-152c10.4-4.4 18.5-12.5 23-22.8 3.5-8.1 4.4-17 2.8-25.6l-0.5-371.3c0-4.2-0.8-8.3-2.4-12.1-6.9-16.7-23.1-26.7-40.2-26.7z m7.6 62.5zM127.8 134.8l302.6-123.6 0.5 331-303.5 133.4 0.4-340.8z m316.3 201.5c0.1 0 0.1 0 0 0 0.1 0 0.1 0 0 0zM573.4-63.2c-17.1 0-33.3 10.1-40.1 26.7-1.6 3.9-2.4 8-2.4 12.2l0.4 373.4c-1.6 8.5-0.7 17.5 2.8 25.5 4.5 10.3 12.7 18.4 23 22.8L899 547.3c0.2 0.1 0.4 0.2 0.7 0.3 22.2 9.1 47.7-1.4 56.8-23.4 1.6-3.8 2.4-8 2.4-12.1l0.5-373.3c1.7-8.5 0.7-17.5-2.8-25.6-4.5-10.3-12.7-18.4-23-22.8l-342.8-150c-0.2-0.1-0.4-0.2-0.7-0.3-5.5-2.3-11.1-3.3-16.7-3.3z m4.5 32.9z m17.4 374.6l-0.4-332.2 300.4 131.5-0.5 332.1-299.5-131.4z m-13.3-5.9z"  horiz-adv-x="1024" />

    
    <glyph glyph-name="menu-line" unicode="&#58963;" d="M405.2992 732.0576H225.28c-33.8944 0-61.44-27.5456-61.44-61.44v-180.0192c0-33.8944 27.5456-61.44 61.44-61.44h180.0192c33.8944 0 61.44 27.5456 61.44 61.44V670.6176c0 33.8944-27.5456 61.44-61.44 61.44z m20.48-241.4592c0-11.264-9.216-20.48-20.48-20.48H225.28c-11.264 0-20.48 9.216-20.48 20.48V670.6176c0 11.264 9.216 20.48 20.48 20.48h180.0192c11.264 0 20.48-9.216 20.48-20.48v-180.0192zM405.2992 338.84159999999997H225.28c-33.8944 0-61.44-27.5456-61.44-61.44v-180.0192c0-33.8944 27.5456-61.44 61.44-61.44h180.0192c33.8944 0 61.44 27.5456 61.44 61.44V277.40160000000003c0 33.792-27.5456 61.44-61.44 61.44z m20.48-241.4592c0-11.264-9.216-20.48-20.48-20.48H225.28c-11.264 0-20.48 9.216-20.48 20.48V277.40160000000003c0 11.264 9.216 20.48 20.48 20.48h180.0192c11.264 0 20.48-9.216 20.48-20.48v-180.0192zM798.72 732.0576H618.7008c-33.8944 0-61.44-27.5456-61.44-61.44v-180.0192c0-33.8944 27.5456-61.44 61.44-61.44H798.72c33.8944 0 61.44 27.5456 61.44 61.44V670.6176c0 33.8944-27.5456 61.44-61.44 61.44z m20.48-241.4592c0-11.264-9.216-20.48-20.48-20.48H618.7008c-11.264 0-20.48 9.216-20.48 20.48V670.6176c0 11.264 9.216 20.48 20.48 20.48H798.72c11.264 0 20.48-9.216 20.48-20.48v-180.0192zM798.72 338.84159999999997H618.7008c-33.8944 0-61.44-27.5456-61.44-61.44v-180.0192c0-33.8944 27.5456-61.44 61.44-61.44H798.72c33.8944 0 61.44 27.5456 61.44 61.44V277.40160000000003c0 33.792-27.5456 61.44-61.44 61.44z m20.48-241.4592c0-11.264-9.216-20.48-20.48-20.48H618.7008c-11.264 0-20.48 9.216-20.48 20.48V277.40160000000003c0 11.264 9.216 20.48 20.48 20.48H798.72c11.264 0 20.48-9.216 20.48-20.48v-180.0192z"  horiz-adv-x="1024" />

    
    <glyph glyph-name="icon-" unicode="&#58884;" d="M512-101.877551A485.877551 485.877551 0 1 0 997.877551 384 486.4 486.4 0 0 0 512-101.877551z m0 929.959184A444.081633 444.081633 0 1 1 956.081633 384 444.604082 444.604082 0 0 1 512 828.081633zM893.387755 363.102041a20.897959 20.897959 0 0 0-20.897959 20.897959 359.967347 359.967347 0 0 1-50.99102 184.946939 20.897959 20.897959 0 1 0 35.84 21.524898A401.763265 401.763265 0 0 0 914.285714 384a20.897959 20.897959 0 0 0-20.897959-20.897959zM130.612245 363.102041a20.897959 20.897959 0 0 0-20.897959 20.897959 402.285714 402.285714 0 0 0 637.387755 326.635102A20.897959 20.897959 0 0 0 722.442449 676.571429 360.489796 360.489796 0 0 1 151.510204 384a20.897959 20.897959 0 0 0-20.897959-20.897959zM512 316.081633a67.918367 67.918367 0 1 0 67.918367 67.918367 68.022857 68.022857 0 0 0-67.918367-67.918367z m0 94.040816a26.122449 26.122449 0 1 1 26.122449-26.122449 26.122449 26.122449 0 0 1-26.122449 26.122449zM548.571429 399.673469a20.897959 20.897959 0 0 0-14.106123 36.571429l240.326531 219.428571a20.897959 20.897959 0 1 0 28.212245-31.346938l-240.326531-219.428572a20.897959 20.897959 0 0 0-14.106122-5.22449zM412.734694 263.836735a20.897959 20.897959 0 0 0-14.733061 35.63102l62.693877 62.693878a20.897959 20.897959 0 0 0 29.570612-29.570613l-62.693877-62.693877a20.897959 20.897959 0 0 0-14.837551-6.060408z"  horiz-adv-x="1024" />

    
    <glyph glyph-name="icon-1" unicode="&#58885;" d="M251.402449 27.585306a240.953469 240.953469 0 1 0 0 481.802449c5.955918 0 11.702857 0 17.449796-0.626939a20.897959 20.897959 0 0 0-3.343674-41.795918h-14.210612a199.157551 199.157551 0 1 1 0-398.210612 20.897959 20.897959 0 1 0 0-41.795919zM562.364082 27.585306H243.147755a20.897959 20.897959 0 0 0 0 41.795918h319.216327a20.897959 20.897959 0 0 0 0-41.795918zM787.435102 162.899592h-124.342857a20.897959 20.897959 0 0 0-20.897959 20.897959v124.342857a20.897959 20.897959 0 0 0 20.897959 20.897959h124.342857a20.897959 20.897959 0 0 0 20.897959-20.897959v-124.342857a20.897959 20.897959 0 0 0-20.897959-20.897959z m-103.444898 41.795918h82.546939v82.546939h-82.546939zM787.435102-29.675102h-124.342857a20.897959 20.897959 0 0 0-20.897959 20.897959v124.342857a20.897959 20.897959 0 0 0 20.897959 20.897959h124.342857a20.897959 20.897959 0 0 0 20.897959-20.897959v-124.342857a20.897959 20.897959 0 0 0-20.897959-20.897959z m-103.444898 41.795918h82.546939v82.546939h-82.546939zM923.062857 155.480816a20.897959 20.897959 0 0 0-14.733061 6.164898l-69.590204 69.590204a20.897959 20.897959 0 0 0 0 29.570613l69.590204 69.590204a20.897959 20.897959 0 0 0 29.570612 0l69.590204-69.590204a20.897959 20.897959 0 0 0 0-29.570613l-69.590204-69.590204a20.897959 20.897959 0 0 0-14.837551-6.164898z m-40.124081 90.488164L923.062857 206.367347l40.019592 40.019592-40.019592 40.019592zM985.234286-29.675102h-124.342857a20.897959 20.897959 0 0 0-20.89796 20.897959v124.342857a20.897959 20.897959 0 0 0 20.89796 20.897959h124.342857a20.897959 20.897959 0 0 0 20.897959-20.897959v-124.342857a20.897959 20.897959 0 0 0-20.897959-20.897959z m-103.444898 41.795918h82.546939v82.546939h-82.546939zM347.324082 516.493061h-1.880817a10.44898 10.44898 0 0 0-8.359183 12.120817A307.617959 307.617959 0 0 0 639.79102 781.061224a10.44898 10.44898 0 0 0 0-20.897959 286.72 286.72 0 0 1-282.122449-235.102041 10.44898 10.44898 0 0 0-10.344489-8.568163zM957.44 373.55102a20.897959 20.897959 0 0 0-20.062041 26.853878A329.142857 329.142857 0 1 1 292.571429 493.714286a20.897959 20.897959 0 0 0-41.795919 0 370.938776 370.938776 0 1 0 726.726531-105.325715A20.897959 20.897959 0 0 0 957.44 373.55102zM997.564082 367.699592a20.897959 20.897959 0 0 0-6.582858 1.044898 94.040816 94.040816 0 0 1-30.61551 4.80653h-1.149387a20.897959 20.897959 0 0 0-3.343674 41.795919 123.506939 123.506939 0 0 0 48.378776-6.687347 20.897959 20.897959 0 0 0-6.582858-40.751021z"  horiz-adv-x="1024" />

    
    <glyph glyph-name="icon-2" unicode="&#58890;" d="M151.510204 363.102041a20.897959 20.897959 0 0 0-20.897959 20.897959V498.938776a20.897959 20.897959 0 0 0 20.897959 20.897959h720.979592a20.897959 20.897959 0 0 0 20.897959-20.897959v-104.489796a20.897959 20.897959 0 0 0-41.795918 0v83.591836h-679.183674v-94.040816a20.897959 20.897959 0 0 0-20.897959-20.897959zM841.142857 592.979592h-658.285714a20.897959 20.897959 0 0 0-20.897959 20.897959V791.510204a20.897959 20.897959 0 0 0 20.897959 20.897959h658.285714a20.897959 20.897959 0 0 0 20.897959-20.897959v-177.632653a20.897959 20.897959 0 0 0-20.897959-20.897959z m-637.387755 41.795918h616.489796V770.612245h-616.489796zM694.857143 728.816327m20.897959 0l20.897959 0q20.897959 0 20.897959-20.89796l0-20.897959q0-20.897959-20.897959-20.897959l-20.897959 0q-20.897959 0-20.897959 20.897959l0 20.897959q0 20.897959 20.897959 20.89796ZM517.22449 363.102041a20.897959 20.897959 0 0 0-20.897959 20.897959V613.877551a20.897959 20.897959 0 0 0 41.795918 0v-229.877551a20.897959 20.897959 0 0 0-20.897959-20.897959zM710.530612 373.55102a20.897959 20.897959 0 0 0-20.897959 20.89796v94.040816a20.897959 20.897959 0 0 0 41.795918 0v-94.040816a20.897959 20.897959 0 0 0-20.897959-20.89796zM334.367347-44.408162999999945H62.693878a20.897959 20.897959 0 0 0-20.89796 20.897959V384a20.897959 20.897959 0 0 0 20.89796 20.897959h271.673469a20.897959 20.897959 0 0 0 20.897959-20.897959v-407.510204a20.897959 20.897959 0 0 0-20.897959-20.897959zM83.591837-2.61224500000003h229.877551V363.102041H83.591837zM762.77551-44.408162999999945H647.836735a20.897959 20.897959 0 0 0-20.897959 20.897959V384a20.897959 20.897959 0 0 0 20.897959 20.897959h114.938775a20.897959 20.897959 0 0 0 20.897959-20.897959v-407.510204a20.897959 20.897959 0 0 0-20.897959-20.897959z m-94.040816 41.795918h73.142857V363.102041h-73.142857zM564.244898-44.408162999999945H417.959184a20.897959 20.897959 0 0 0-20.89796 20.897959V384a20.897959 20.897959 0 0 0 20.89796 20.897959h146.285714a20.897959 20.897959 0 0 0 20.897959-20.897959v-407.510204a20.897959 20.897959 0 0 0-20.897959-20.897959z m-125.387755 41.795918h104.489796V363.102041H438.857143zM961.306122-44.408162999999945H846.367347a20.897959 20.897959 0 0 0-20.897959 20.897959V384a20.897959 20.897959 0 0 0 20.897959 20.897959h114.938775a20.897959 20.897959 0 0 0 20.89796-20.897959v-407.510204a20.897959 20.897959 0 0 0-20.89796-20.897959z m-94.040816 41.795918h73.142857V363.102041h-73.142857zM198.530612-44.408162999999945a20.897959 20.897959 0 0 0-20.897959 20.897959v52.244898a20.897959 20.897959 0 0 0 41.795918 0v-52.244898a20.897959 20.897959 0 0 0-20.897959-20.897959zM491.102041-44.408162999999945a20.897959 20.897959 0 0 0-20.897959 20.897959v52.244898a20.897959 20.897959 0 0 0 41.795918 0v-52.244898a20.897959 20.897959 0 0 0-20.897959-20.897959z"  horiz-adv-x="1024" />

    
    <glyph glyph-name="zuzhiguanli-" unicode="&#58938;" d="M896.1 259.35H801v95a64.07 64.07 0 0 1-64 64H544v96.53h95.9a64.07 64.07 0 0 1 64 64V735.21a64.07 64.07 0 0 1-64 64H384.37a64.07 64.07 0 0 1-64-64v-156.33a64.07 64.07 0 0 1 64-64H480v-96.57H288a64.07 64.07 0 0 1-64-64v-95h-96a64.07 64.07 0 0 1-64-64v-160.52a64.07 64.07 0 0 1 64-64h255.4a64.07 64.07 0 0 1 64 64V195.35a64.07 64.07 0 0 1-64 64h-95.48v94.9l0.06 0.06h448.93l0.06-0.06v-94.9H640.6a64.07 64.07 0 0 1-64-64v-160.56a64.07 64.07 0 0 1 64-64h255.5a64.07 64.07 0 0 1 64 64V195.35a64.07 64.07 0 0 1-64 64zM384.37 578.93V735.15l0.06 0.06h255.38l0.06-0.06v-156.22l-0.06-0.06H384.42z m-1-383.64v-160.44l-0.06-0.06H128l-0.06 0.06V195.29l0.06 0.06h255.34zM896.1 34.85l-0.06-0.06H640.66l-0.06 0.06V195.29l0.06 0.06H896l0.06-0.06z"  horiz-adv-x="1024" />

    
    <glyph glyph-name="caidanguanli" unicode="&#58987;" d="M893.7 767H552.1c-1 0-1.8-0.8-1.8-1.8v-341.6c0-1 0.8-1.8 1.8-1.8h341.6c1 0 1.8 0.8 1.8 1.8V765.2c0 1-0.8 1.8-1.8 1.8z m-46.2-297.2H598.3V719h249.2v-249.2zM471.9 767H130.3c-1 0-1.8-0.8-1.8-1.8v-341.6c0-1 0.8-1.8 1.8-1.8h341.6c1 0 1.8 0.8 1.8 1.8V765.2c0 1-0.8 1.8-1.8 1.8z m-46.2-297.2H176.5V719h249.2v-249.2zM471.9 346.2H130.3c-1 0-1.8-0.8-1.8-1.8v-341.6c0-1 0.8-1.8 1.8-1.8h341.6c1 0 1.8 0.8 1.8 1.8V344.4c0 1-0.8 1.8-1.8 1.8zM425.7 49H176.5V298.2h249.2V49zM577 283m-24 0a24 24 0 1 1 48 0 24 24 0 1 1-48 0ZM873 307H636c-4.4 0-8-3.6-8-8v-32c0-4.4 3.6-8 8-8h237c4.4 0 8 3.6 8 8v32c0 4.4-3.6 8-8 8zM577 174m-24 0a24 24 0 1 1 48 0 24 24 0 1 1-48 0ZM873 198H636c-4.4 0-8-3.6-8-8v-32c0-4.4 3.6-8 8-8h237c4.4 0 8 3.6 8 8v32c0 4.4-3.6 8-8 8zM577 65m-24 0a24 24 0 1 1 48 0 24 24 0 1 1-48 0ZM873 89H636c-4.4 0-8-3.6-8-8v-32c0-4.4 3.6-8 8-8h237c4.4 0 8 3.6 8 8v32c0 4.4-3.6 8-8 8z"  horiz-adv-x="1024" />

    
    <glyph glyph-name="fenlei2" unicode="&#59119;" d="M389.581123-106.292104L79.338041 204.402438a79.637485 79.637485 0 0 0 2.79905 112.59404l418.864277 418.864278a83.790914 83.790914 0 0 0 54.17516 24.649697l330.739351 20.405977a76.296683 76.296683 0 0 0 58.599464-21.850647 76.386975 76.386975 0 0 0 21.760356-58.689757l-20.586561-330.649059a83.339454 83.339454 0 0 0-24.649697-54.17516l-418.773986-418.683693a79.908361 79.908361 0 0 0-112.684332-3.160218z m506.898912 817.593454a8.487442 8.487442 0 0 1-6.681603 2.167006l-330.649059-20.405977a16.7943 16.7943 0 0 1-10.383572-4.966056L129.630647 269.232046a12.731163 12.731163 0 0 1-2.79905-17.065176l310.243082-310.333373a13.002038 13.002038 0 0 1 17.155468 2.799049L873.275008 363.225948a15.89138 15.89138 0 0 1 4.966056 10.383572l20.405977 330.919935a8.39715 8.39715 0 0 1-2.167006 6.771895zM335.225379 695.319678a33.769183 33.769183 0 0 0 0 47.764432L460.91175 868.860773a33.317723 33.317723 0 0 0 22.031231 9.841821L797.068616 895.948353a33.769183 33.769183 0 1 0 3.70197-67.448074L499.827573 811.886563 382.989812 695.319678a33.769183 33.769183 0 0 0-47.764433 0zM286.467735 646.562034m-35.936189 0a35.936189 35.936189 0 1 1 71.872378 0 35.936189 35.936189 0 1 1-71.872378 0ZM671.382246 485.932685a92.910399 92.910399 0 1 0 131.465054 0 93.000691 93.000691 0 0 0-131.465054 0z m101.307549 101.488133a50.653774 50.653774 0 1 1 0-71.691795 50.744066 50.744066 0 0 1 0 71.691795zM343.132177 394.849116m21.133039-21.133039l194.66657-194.66657q21.133039-21.133039 0-42.266077l-0.063846-0.063847q-21.133039-21.133039-42.266077 0l-194.66657 194.666571q-21.133039 21.133039 0 42.266077l0.063846 0.063846q21.133039 21.133039 42.266077 0ZM259.08142 310.812677m21.133038-21.133039l194.666571-194.66657q21.133039-21.133039 0-42.266078l-0.063846-0.063846q-21.133039-21.133039-42.266078 0l-194.66657 194.666571q-21.133039 21.133039 0 42.266077l0.063846 0.063846q21.133039 21.133039 42.266077 0Z"  horiz-adv-x="1024" />

    
    <glyph glyph-name="shangpinfenlei" unicode="&#59172;" d="M466.5 404.6H321.6c-46.6 0-90.4 18.3-123.5 51.6-32.5 32.8-50.2 75.8-49.9 121.3 0.3 45.4 18.2 88 50.3 120.1 32.1 32.1 74.7 49.9 120.1 50.3 45.5 0.3 88.5-17.4 121.3-49.9 33.3-33.1 51.6-76.9 51.6-123.5v-144.9c0-13.8-11.2-25-25-25zM318.8 722.9l0.2-25c-66.1-0.5-120.3-54.6-120.7-120.7-0.2-32 12.3-62.5 35.4-85.7 23.6-23.8 54.9-36.9 88-36.9h119.9V574.5c0 33.2-13.1 64.4-36.9 88-23 22.8-53.1 35.4-84.8 35.4h-0.9l-0.2 25zM319.8 23.1h-1.3c-45.4 0.3-88 18.2-120.1 50.3-32.1 32.1-49.9 74.7-50.3 120.1-0.3 45.5 17.4 88.5 49.9 121.3 33.1 33.3 76.9 51.6 123.5 51.6h144.9c13.8 0 25-11.2 25-25v-144.9c0-46.6-18.3-90.4-51.6-123.5-32.4-32.2-75-49.9-120-49.9zM198.2 193.8c0.5-66.1 54.6-120.3 120.7-120.7h0.9c31.7 0 61.8 12.5 84.8 35.4 23.8 23.6 36.9 54.9 36.9 88V316.4H321.6c-33.2 0-64.4-13.1-88-36.9-23.1-23.2-35.6-53.6-35.4-85.7zM701.9 22.1c-45 0-87.6 17.7-120 49.9-33.3 33.1-51.6 76.9-51.6 123.5V340.4c0 13.8 11.2 25 25 25h144.9c46.6 0 90.4-18.3 123.5-51.6 32.5-32.8 50.2-75.8 49.9-121.3-0.3-45.4-18.2-88-50.3-120.1s-74.7-49.9-120.1-50.3h-1.3z m0.9 50l0.2-25-0.2 25c66.1 0.5 120.3 54.6 120.7 120.7 0.2 32-12.3 62.5-35.4 85.7-23.6 23.8-54.9 36.9-88 36.9H580.2v-119.9c0-33.2 13.1-64.4 36.9-88 23-22.8 53.1-35.4 84.8-35.4h0.9zM700.2 404.6h-145c-13.8 0-25 11.2-25 25V574.5c0 46.6 18.3 90.4 51.6 123.5 32.5 32.2 75 49.9 120 49.9h1.3c45.4-0.3 88-18.2 120.1-50.3 32.1-32.1 49.9-74.7 50.3-120.1 0.3-45.5-17.4-88.5-49.9-121.3-33-33.3-76.9-51.6-123.4-51.6z m-120 50h119.9c33.2 0 64.4 13.1 88 36.9 23.1 23.2 35.6 53.7 35.4 85.7-0.5 66.1-54.6 120.3-120.7 120.7h-0.9c-31.7 0-61.8-12.5-84.8-35.4-23.8-23.6-36.9-54.9-36.9-88v-119.9z"  horiz-adv-x="1024" />

    
    <glyph glyph-name="caidan" unicode="&#58964;" d="M376.832 421.888H130.048c-33.792 0-61.44 27.648-61.44 61.44V730.112c0 33.792 27.648 61.44 61.44 61.44h247.296c33.792 0 61.44-27.648 61.44-61.44v-247.296c-0.512-33.792-27.648-60.928-61.952-60.928zM130.048 730.112v-247.296h247.296V730.112H130.048zM739.84 370.688c-16.384 0-31.744 6.144-43.52 17.92L521.728 563.2c-11.776 11.776-17.92 27.136-17.92 43.52s6.144 31.744 17.92 43.52L696.32 824.832c11.776 11.776 27.136 17.92 43.52 17.92s31.744-6.144 43.52-17.92L957.952 650.24c11.776-11.776 17.92-27.136 17.92-43.52s-6.144-31.744-17.92-43.52L783.36 388.608c-11.776-11.776-27.136-17.92-43.52-17.92z m0 411.136l-174.592-174.592 174.592-174.592 174.592 174.592-174.592 174.592zM376.832-64.512H130.048c-33.792 0-61.44 27.648-61.44 61.44v247.296c0 33.792 27.648 61.44 61.44 61.44h247.296c33.792 0 61.44-27.648 61.44-61.44v-247.296c-0.512-34.304-27.648-61.44-61.952-61.44z m-246.784 308.224v-247.296h247.296v247.296H130.048zM863.232-64.512h-247.296c-33.792 0-61.44 27.648-61.44 61.44v247.296c0 33.792 27.648 61.44 61.44 61.44h247.296c33.792 0 61.44-27.648 61.44-61.44v-247.296c0-34.304-27.136-61.44-61.44-61.44z m-246.784 308.224v-247.296h247.296v247.296h-247.296z"  horiz-adv-x="1024" />

    
    <glyph glyph-name="bumenguanli1" unicode="&#58913;" d="M608 467.2H416c-51.2 0-96 44.8-96 96v192c0 51.2 44.8 96 96 96h192c51.2 0 96-44.8 96-96v-192c0-57.6-44.8-96-96-96z m-192 320c-19.2 0-32-12.8-32-32v-192c0-19.2 12.8-32 32-32h192c19.2 0 32 12.8 32 32v192c0 19.2-12.8 32-32 32H416z m-192-864h-64c-51.2 0-96 44.8-96 96v64c0 51.2 44.8 96 96 96h64c51.2 0 96-44.8 96-96v-64c0-57.6-44.8-96-96-96z m-64 192c-19.2 0-32-12.8-32-32v-64c0-19.2 12.8-32 32-32h64c19.2 0 32 12.8 32 32v64c0 19.2-12.8 32-32 32h-64z m704-192h-64c-51.2 0-96 44.8-96 96v64c0 51.2 44.8 96 96 96h64c51.2 0 96-44.8 96-96v-64c0-57.6-44.8-96-96-96z m-64 192c-19.2 0-32-12.8-32-32v-64c0-19.2 12.8-32 32-32h64c19.2 0 32 12.8 32 32v64c0 19.2-12.8 32-32 32h-64z m-256-192h-64c-51.2 0-96 44.8-96 96v64c0 51.2 44.8 96 96 96h64c51.2 0 96-44.8 96-96v-64c0-57.6-44.8-96-96-96z m-64 192c-19.2 0-32-12.8-32-32v-64c0-19.2 12.8-32 32-32h64c19.2 0 32 12.8 32 32v64c0 19.2-12.8 32-32 32h-64zM224 115.2h-64v128c0 51.2 44.8 96 96 96h512c51.2 0 96-44.8 96-96v-128h-64v128c0 19.2-12.8 32-32 32H256c-19.2 0-32-12.8-32-32v-128zM480 499.2h64v-320h-64z"  horiz-adv-x="1024" />

    
    <glyph glyph-name="yunweiguanli" unicode="&#58886;" d="M1013.103308-54.21984l-157.555433 156.391804a43.287017 43.287017 0 0 1-10.333029 6.56287 234.494614 234.494614 0 0 1-1.396356 269.031137 235.332428 235.332428 0 0 1-253.531593 91.135462 31.464541 31.464541 0 0 1-14.103189-52.596053l126.509798-126.323617-97.372516-99.048142-126.044346 125.81162a31.557632 31.557632 0 0 1-52.642598-14.056644 234.494614 234.494614 0 0 1 40.727032-202.378441 235.285882 235.285882 0 0 1 185.017089-92.066365 235.425518 235.425518 0 0 1 133.584665 41.797571 43.193927 43.193927 0 0 1 6.56287-9.867578l157.555433-157.322706c17.687168-15.266819 44.264466-14.335915 60.83455 2.234168a44.543737 44.543737 0 0 1 2.187623 60.694914z m-360.725141 109.427717a188.275251 188.275251 0 0 0-140.706078 61.951634 187.623619 187.623619 0 0 0-47.429538 146.058774l141.078439-140.845714 163.699397 167.609192-138.239183 140.892258a188.321796 188.321796 0 0 0 153.273276-53.526956 187.577073 187.577073 0 0 0 42.681929-205.264242 188.135616 188.135616 0 0 0-174.358242-116.8284zM666.993353 756.364461H170.82174C153.600023 756.364461 139.636469 746.124522 139.636469 733.091872s13.963554-23.27259 31.185271-23.27259h496.171613c17.221716 0 31.18527 10.239939 31.18527 23.27259s-13.963554 23.27259-31.18527 23.272589zM698.178623 593.456333c0 13.03265-13.963554 23.27259-31.18527 23.27259H170.82174C153.600023 616.728923 139.636469 606.488983 139.636469 593.456333s13.963554-23.27259 31.185271-23.27259h496.171613c17.221716 0 31.18527 10.239939 31.18527 23.27259zM172.683547 477.093384c-18.15262 0-33.047077-10.239939-33.047078-23.272589s14.894457-23.27259 33.047078-23.27259h166.631743c18.15262 0 33.047077 10.239939 33.047077 23.27259S357.46791 477.093384 339.31529 477.093384H172.683547zM462.660015-81.44877H154.996379A109.381172 109.381172 0 0 0 46.54611 28.397854V739.608197A109.381172 109.381172 0 0 0 154.996379 849.45482h527.822335A109.381172 109.381172 0 0 0 791.268983 739.608197v-222.485958a23.27259 23.27259 0 1 1 46.545179 0V739.608197A155.926351 155.926351 0 0 1 682.818714 896H154.996379A155.926351 155.926351 0 0 1 0.000931 739.608197v-711.210343A155.926351 155.926351 0 0 1 154.996379-127.993949h307.663636a23.27259 23.27259 0 0 1 0 46.545179z"  horiz-adv-x="1024" />

    
    <glyph glyph-name="shangpinguanli" unicode="&#58910;" d="M691.2 25.6H307.2c-14.336 0-25.6 11.264-25.6 25.6s11.264 25.6 25.6 25.6h384c14.336 0 25.6-11.264 25.6-25.6s-11.264-25.6-25.6-25.6zM874.496-102.4H149.504c-42.496 0-76.8 34.304-76.8 76.8l0.512 7.168 58.368 614.4c3.584 39.936 36.352 69.632 76.288 69.632h608.256c39.936 0 72.704-29.696 76.288-69.632l58.368-614.4c2.048-20.48-4.096-40.448-17.408-56.32-12.8-15.872-31.744-25.6-52.224-27.648h-6.656zM207.872 614.4a25.6 25.6 0 0 1-25.6-23.04l-58.368-614.4c0-16.384 11.264-28.16 25.6-28.16h724.48c9.216 1.024 15.36 4.096 19.968 9.216s6.144 11.776 5.632 18.432l-58.368 614.4a25.2416 25.2416 0 0 1-25.6 23.04H207.872zM716.8 512c-14.336 0-25.6 11.264-25.6 25.6V640c0 98.816-80.384 179.2-179.2 179.2S332.8 738.816 332.8 640v-102.4c0-14.336-11.264-25.6-25.6-25.6s-25.6 11.264-25.6 25.6V640C281.6 766.976 385.024 870.4 512 870.4s230.4-103.424 230.4-230.4v-102.4c0-14.336-11.264-25.6-25.6-25.6z"  horiz-adv-x="1024" />

    
    <glyph glyph-name="shouhouguanli" unicode="&#58882;" d="M819.2 409.6c-14.336 0-25.6 11.264-25.6 25.6V486.4c0 183.296-126.464 332.8-281.6 332.8S230.4 669.696 230.4 486.4v-51.2c0-14.336-11.264-25.6-25.6-25.6s-25.6 11.264-25.6 25.6V486.4C179.2 698.368 328.704 870.4 512 870.4s332.8-172.032 332.8-384v-51.2c0-14.336-11.264-25.6-25.6-25.6zM230.4 102.4h-51.2c-84.48 0-153.6 69.12-153.6 153.6v51.2c0 84.48 69.12 153.6 153.6 153.6h51.2v-358.4z m-51.2 307.2c-56.32 0-102.4-46.08-102.4-102.4v-51.2c0-56.32 46.08-102.4 102.4-102.4v256zM844.8 102.4h-51.2v358.4h51.2c84.48 0 153.6-69.12 153.6-153.6v-51.2c0-84.48-69.12-153.6-153.6-153.6z m0 307.2v-256c56.32 0 102.4 46.08 102.4 102.4v51.2c0 56.32-46.08 102.4-102.4 102.4zM563.2-76.8v51.2c158.208 0 245.248 51.712 266.24 158.72l50.176-10.24C853.504-9.728 747.008-76.8 563.2-76.8z"  horiz-adv-x="1024" />

    
    <glyph glyph-name="RectangleCopy" unicode="&#59074;" d="M595.553707 489.045333h-213.333334a21.333333 21.333333 0 0 1 0-42.666666h213.333334a21.333333 21.333333 0 0 1 0 42.666666M595.553707 361.045333h-213.333334a21.333333 21.333333 0 0 1 0-42.666666h213.333334a21.333333 21.333333 0 0 1 0 42.666666M704.012373 254.378667a64 64 0 1 1 0.042667-128.042667 64 64 0 0 1 0 128.042667M704.012373 83.712A106.794667 106.794667 0 0 0 597.345707 190.378667C597.345707 249.173333 645.17504 297.045333 704.012373 297.045333 762.892373 297.045333 810.67904 249.173333 810.67904 190.378667S762.892373 83.712 704.012373 83.712m0 256C635.31904 339.712 577.804373 292.778667 560.524373 229.418667a20.736 20.736 0 0 1-11.178666 3.626666H384.012373a21.333333 21.333333 0 0 1 0-42.666666h165.333334c1.92 0 3.669333 0.597333 5.461333 1.109333 0-0.384-0.128-0.725333-0.128-1.109333C554.67904 108.032 621.665707 41.045333 704.012373 41.045333S853.345707 108.032 853.345707 190.378667 786.35904 339.712 704.012373 339.712M490.67904 84.693333H273.761707c-31.744 0-57.6 25.685333-57.6 57.173334V461.738667L490.67904 719.402667l326.741333-306.773334a21.290667 21.290667 0 0 1 30.122667 1.024 21.290667 21.290667 0 0 1-0.938667 30.165334L507.19104 762.410667A21.248 21.248 0 0 1 490.67904 767.914667a21.162667 21.162667 0 0 1-16.512-5.546667L134.753707 443.818667a21.290667 21.290667 0 0 1 14.592-36.906667 21.290667 21.290667 0 0 1 14.592 5.76l9.557333 8.96v-279.722667a100.181333 100.181333 0 0 1 100.266667-99.882666H490.67904a21.333333 21.333333 0 0 1 0 42.666666"  horiz-adv-x="1024" />

    
    <glyph glyph-name="dizhiguanli" unicode="&#58896;" d="M512-64c-4.19 0-8.38 1.51-11.68 4.56-13.6 12.54-332.94 309.7-332.94 541.79C167.38 675.16 321.98 832 512 832s344.62-156.84 344.62-349.65c0-232.09-319.34-529.26-332.94-541.79-3.3-3.05-7.49-4.56-11.68-4.56z m0 861.54c-171.02 0-310.15-141.4-310.15-315.19 0-193.12 252.32-449.16 310.15-505.31 57.83 56.15 310.15 312.19 310.15 505.31 0 173.79-139.13 315.19-310.15 315.19z m0-455.17c-77.19 0-139.98 62.8-139.98 139.98S434.81 622.32 512 622.32s139.98-62.78 139.98-139.97S589.19 342.37 512 342.37z m0 245.49c-58.19 0-105.52-47.33-105.52-105.5 0-58.19 47.33-105.52 105.52-105.52s105.52 47.33 105.52 105.52c0 58.16-47.33 105.5-105.52 105.5z"  horiz-adv-x="1024" />

    
    <glyph glyph-name="guanli" unicode="&#58887;" d="M896 268.288c-48.128 0-87.04-38.912-87.04-86.016 0-48.128 38.912-86.016 87.04-86.016s87.04 38.912 87.04 86.016c0 47.104-38.912 86.016-87.04 86.016z m-405.504 588.8c-48.128 0-87.04-38.912-87.04-86.016 0-48.128 38.912-86.016 87.04-86.016s87.04 38.912 87.04 86.016c0 48.128-38.912 86.016-87.04 86.016zM128 268.288c-48.128 0-87.04-38.912-87.04-86.016 0-48.128 38.912-86.016 87.04-86.016s87.04 38.912 87.04 86.016c0 47.104-38.912 86.016-87.04 86.016z m637.952-236.544c-71.68-54.272-157.696-82.944-247.808-82.944-103.424 0-201.728 37.888-278.528 107.52-8.192 7.168-20.48 6.144-27.648-1.024-3.072-4.096-5.12-8.192-5.12-13.312s2.048-10.24 6.144-13.312c82.944-75.776 191.488-117.76 304.128-117.76 50.176 0 98.304 8.192 145.408 23.552 45.056 15.36 87.04 37.888 125.952 66.56 4.096 3.072 7.168 7.168 7.168 12.288 1.024 5.12-1.024 10.24-4.096 14.336-5.12 8.192-17.408 10.24-25.6 4.096zM306.176 715.776c4.096 3.072 7.168 7.168 9.216 12.288 1.024 5.12 0 10.24-2.048 14.336-5.12 9.216-17.408 12.288-26.624 6.144-65.536-38.912-120.832-95.232-158.72-161.792-38.912-68.608-60.416-146.432-60.416-225.28 0-10.24 8.192-19.456 19.456-19.456s19.456 8.192 19.456 19.456C105.472 507.904 180.224 640 306.176 715.776z m587.776-105.472c-48.128 71.68-114.688 129.024-192.512 163.84-9.216 4.096-21.504 0-25.6-9.216-2.048-5.12-2.048-10.24 0-14.336 2.048-5.12 5.12-8.192 10.24-10.24 148.48-66.56 244.736-214.016 244.736-377.856 0-10.24 8.192-19.456 19.456-19.456s19.456 8.192 19.456 19.456c-1.024 88.064-26.624 174.08-75.776 247.808z"  horiz-adv-x="1024" />

    
    <glyph glyph-name="jiaoseguanli1" unicode="&#58888;" d="M540.444444 355.555556a227.555556 227.555556 0 1 0 0 455.111111 227.555556 227.555556 0 0 0 0-455.111111z m0 56.888888a170.666667 170.666667 0 1 1 0 341.333334 170.666667 170.666667 0 0 1 0-341.333334zM262.599111-62.577778a199.111111 199.111111 0 1 0 0 398.222222 199.111111 199.111111 0 0 0 0-398.222222z m0 56.888889a142.222222 142.222222 0 1 1 0 284.444445 142.222222 142.222222 0 0 1 0-284.444445zM805.774222 13.880889a142.222222 142.222222 0 1 0 0 284.444444 142.222222 142.222222 0 0 0 0-284.444444z m0 56.888889a85.333333 85.333333 0 1 1 0 170.666666 85.333333 85.333333 0 0 1 0-170.666666zM773.688889 265.386667l-48.810667-29.184-99.157333 165.432889 48.810667 29.240888 99.157333-165.489777zM417.393778 429.511111l47.786666-30.833778-85.902222-133.347555-47.786666 30.776889 85.902222 133.404444z"  horiz-adv-x="1024" />

    
    <glyph glyph-name="guanliliucheng" unicode="&#58899;" d="M486.4 675.384889a45.511111 45.511111 0 0 1-45.511111-45.511111v-51.2a45.511111 45.511111 0 0 1 45.511111-45.511111h51.2a45.511111 45.511111 0 0 1 45.511111 45.511111v51.2a45.511111 45.511111 0 0 1-45.511111 45.511111h-51.2z m51.2 56.888889a102.4 102.4 0 0 0 102.4-102.4v-51.2a102.4 102.4 0 0 0-102.4-102.4h-51.2a102.4 102.4 0 0 0-102.4 102.4v51.2a102.4 102.4 0 0 0 102.4 102.4h51.2zM258.844444 225.393778a45.511111 45.511111 0 0 1-45.511111-45.511111v-51.2a45.511111 45.511111 0 0 1 45.511111-45.511111h51.2a45.511111 45.511111 0 0 1 45.511112 45.511111v51.2a45.511111 45.511111 0 0 1-45.511112 45.511111h-51.2z m0 56.888889h51.2a102.4 102.4 0 0 0 102.4-102.4v-51.2a102.4 102.4 0 0 0-102.4-102.4h-51.2a102.4 102.4 0 0 0-102.4 102.4v51.2a102.4 102.4 0 0 0 102.4 102.4zM713.955556 225.393778a45.511111 45.511111 0 0 1-45.511112-45.511111v-51.2a45.511111 45.511111 0 0 1 45.511112-45.511111h51.2a45.511111 45.511111 0 0 1 45.511111 45.511111v51.2a45.511111 45.511111 0 0 1-45.511111 45.511111h-51.2z m51.2 56.888889a102.4 102.4 0 0 0 102.4-102.4v-51.2a102.4 102.4 0 0 0-102.4-102.4h-51.2a102.4 102.4 0 0 0-102.4 102.4v51.2a102.4 102.4 0 0 0 102.4 102.4h51.2zM312.888889 248.376889h-56.888889V333.482667a79.644444 79.644444 0 0 0 79.644444 79.644444h352.711112a79.644444 79.644444 0 0 0 79.644444-79.644444v-85.105778h-56.888889V333.482667a22.755556 22.755556 0 0 1-22.755555 22.755555H335.644444a22.755556 22.755556 0 0 1-22.755555-22.755555v-85.105778zM540.444444 384.682667h-56.888888V520.988444h56.888888z"  horiz-adv-x="1024" />

    
    <glyph glyph-name="menu" unicode="&#58903;" d="M64 732.3c0-22.6 18.3-40.9 40.9-40.9 22.6 0 40.9 18.3 40.9 40.9 0 22.6-18.3 40.9-40.9 40.9-22.6 0-40.9-18.3-40.9-40.9zM64 384c0-22.6 18.3-40.9 40.9-40.9 22.6 0 40.9 18.3 40.9 40.9 0 22.6-18.3 40.9-40.9 40.9-22.6 0-40.9-18.3-40.9-40.9zM64 35.7c0-22.6 18.3-40.9 40.9-40.9 22.6 0 40.9 18.3 40.9 40.9 0 22.6-18.3 40.9-40.9 40.9-22.6-0.1-40.9-18.3-40.9-40.9zM935 706.8H289.9c-13.7 0-25 11.3-25 25v1.1c0 13.7 11.3 25 25 25H935c13.8 0 25-11.3 25-25v-1.1c0-13.8-11.2-25-25-25zM935 358.5H289.9c-13.7 0-25 11.2-25 25v1.1c0 13.8 11.3 25 25 25H935c13.8 0 25-11.2 25-25v-1.1c0-13.8-11.2-25-25-25zM935 10.1H289.9c-13.7 0-25 11.2-25 25v1.1c0 13.8 11.3 25 25 25H935c13.8 0 25-11.3 25-25v-1.1c0-13.7-11.2-25-25-25z"  horiz-adv-x="1024" />

    
    <glyph glyph-name="richengguanli" unicode="&#58949;" d="M959.040714 815.424858h-127.741079C831.299635 854.729805 805.751419 896 766.446472 896s-64.853163-41.270195-64.853163-80.575142H320.33532C320.33532 854.729805 294.787105 896 255.482157 896S192.594242 856.695053 192.594242 817.390105H64.853163C25.548216 817.390105 0 807.563869 0 768.258921V-70.901703c1.965247-33.409205 31.443958-58.957421 64.853163-56.992174h902.04854c33.409205 1.965247 58.957421 31.443958 56.992174 64.853163V768.258921c-1.965247 39.304947-27.513463 47.165937-64.853163 47.165937zM39.304947 778.085158h943.318735v-137.567315H39.304947v-1.965248V778.085158z m945.283982-864.70884H37.3397L39.304947 601.212895h945.283982v-687.836577zM306.578589 385.035685c0-39.304947-13.756732-53.061679-51.096432-53.061678s-51.096431 13.756732-51.096431 53.061678 11.791484 53.061679 51.096431 53.061679 51.096431-13.756732 51.096432-53.061679zM306.578589 129.553528c0-39.304947-13.756732-53.061679-51.096432-53.061679s-51.096431 13.756732-51.096431 53.061679 11.791484 53.061679 51.096431 53.061679 51.096431-13.756732 51.096432-53.061679zM562.060746 129.553528c0-39.304947-13.756732-53.061679-51.096431-53.061679s-51.096431 13.756732-51.096432 53.061679 11.791484 53.061679 51.096432 53.061679 51.096431-13.756732 51.096431-53.061679zM817.542903 385.035685c0-39.304947-13.756732-53.061679-51.096431-53.061678s-51.096431 13.756732-51.096432 53.061678 11.791484 53.061679 51.096432 53.061679 51.096431-13.756732 51.096431-53.061679zM562.060746 385.035685c0-39.304947-13.756732-53.061679-51.096431-53.061678s-51.096431 13.756732-51.096432 53.061678 11.791484 53.061679 51.096432 53.061679 51.096431-13.756732 51.096431-53.061679z"  horiz-adv-x="1026" />

    
    <glyph glyph-name="caiwuguanli" unicode="&#58954;" d="M244.288 732a19.2 19.2 0 0 0 19.2 19.2h488.8a19.2 19.2 0 0 0 0-38.4h-488.8a19.2 19.2 0 0 0-19.2 19.2z m-50.56-96.464a19.2 19.2 0 0 0 19.2 19.2h594.16a19.2 19.2 0 1 0 0-38.4H212.912a19.2 19.2 0 0 0-19.2 19.2zM96.8 460.816c0 49.248 40 89.072 89.248 89.072h647.904c49.248 0 89.248-39.824 89.248-89.056v-350.976c0-49.232-40-89.056-89.248-89.056H186.048a89.152 89.152 0 0 0-89.248 89.056V460.832z m89.248 50.672a50.752 50.752 0 0 1-50.848-50.656v-350.976a50.752 50.752 0 0 1 50.848-50.656h647.904a50.752 50.752 0 0 1 50.848 50.656V460.832a50.752 50.752 0 0 1-50.848 50.656H186.048z m196.4-75.888a19.2 19.2 0 0 0 26.304 6.784l104.656-61.776 101.872 61.664a19.2 19.2 0 0 0 19.888-32.848l-102.432-62.016v-29.12h126.864a19.2 19.2 0 0 0 0-38.4h-126.864v-51.536l126.992-0.928a19.2 19.2 0 1 0-0.272-38.4l-126.72 0.928v-53.488a19.2 19.2 0 1 0-38.4 0V190.08H364.64a19.2 19.2 0 0 0 0 38.4h129.712v51.392H364.64a19.2 19.2 0 0 0 0 38.4h129.712v29.008l-105.12 62.032a19.2 19.2 0 0 0-6.768 26.288z"  horiz-adv-x="1024" />

    
    <glyph glyph-name="icon_huabanfuben" unicode="&#58933;" d="M431.407407 421.925926H170.666667c-23.514074 0-42.666667 19.152593-42.666667 42.666667V725.333333c0 23.514074 19.152593 42.666667 42.666667 42.666667h260.74074c23.514074 0 42.666667-19.152593 42.666667-42.666667v-260.74074c0-23.514074-19.152593-42.666667-42.666667-42.666667zM170.666667 725.333333v-260.74074h260.74074V725.333333H170.666667zM853.333333 421.925926H592.592593c-23.514074 0-42.666667 19.152593-42.666667 42.666667V725.333333c0 23.514074 19.152593 42.666667 42.666667 42.666667h260.74074c23.514074 0 42.666667-19.152593 42.666667-42.666667v-260.74074c0-23.514074-19.152593-42.666667-42.666667-42.666667zM592.592593 725.333333v-260.74074h260.74074V725.333333H592.592593zM431.407407 0H170.666667c-23.514074 0-42.666667 19.152593-42.666667 42.666667V303.407407c0 23.514074 19.152593 42.666667 42.666667 42.666667h260.74074c23.514074 0 42.666667-19.152593 42.666667-42.666667v-260.74074c0-23.514074-19.152593-42.666667-42.666667-42.666667zM170.666667 303.407407v-260.74074h260.74074V303.407407H170.666667zM571.259259 0c-11.757037 0-21.333333 9.576296-21.333333 21.333333v192.474074c0 11.757037 9.576296 21.333333 21.333333 21.333334s21.333333-9.576296 21.333334-21.333334v-192.474074c0-11.757037-9.576296-21.333333-21.333334-21.333333zM672.426667 0c-11.757037 0-21.333333 9.576296-21.333334 21.333333v192.474074c0 11.757037 9.576296 21.333333 21.333334 21.333334s21.333333-9.576296 21.333333-21.333334v-192.474074c0-11.757037-9.576296-21.333333-21.333333-21.333333zM874.666667 0c-11.757037 0-21.333333 9.576296-21.333334 21.333333v303.407408c0 11.757037 9.576296 21.333333 21.333334 21.333333s21.333333-9.576296 21.333333-21.333333v-303.407408c0-11.757037-9.576296-21.333333-21.333333-21.333333zM773.499259 0c-11.757037 0-21.333333 9.576296-21.333333 21.333333v303.407408c0 11.757037 9.576296 21.333333 21.333333 21.333333s21.333333-9.576296 21.333334-21.333333v-303.407408c0-11.757037-9.481481-21.333333-21.333334-21.333333z"  horiz-adv-x="1024" />

    
    <glyph glyph-name="icon-3" unicode="&#58982;" d="M512-64c-50.062222 0-99.271111 8.248889-146.299259 24.462222l-19.437037 6.731852 6.068148 19.721482c8.438519 27.685926-3.128889 57.078519-28.16 71.49037-25.031111 14.411852-56.225185 9.765926-75.946667-11.282963L234.192593 32.047407 218.642963 45.511111c-37.357037 32.426667-68.93037 70.542222-93.771852 113.208889-25.41037 43.614815-43.045926 90.737778-52.527407 140.231111l-3.887408 20.195556 20.005926 4.645926c28.16 6.542222 47.786667 31.288889 47.786667 60.207407s-19.626667 53.665185-47.786667 60.207407l-20.005926 4.645926 3.887408 20.195556c9.481481 49.493333 27.211852 96.616296 52.527407 140.231111 24.841481 42.666667 56.414815 80.782222 93.771852 113.208889l15.54963 13.463704 14.032592-15.075556c19.721481-21.048889 50.915556-25.694815 75.946667-11.282963 25.031111 14.506667 36.598519 43.899259 28.16 71.49037l-6.068148 19.721482 19.437037 6.731852C412.728889 823.751111 461.937778 832 512 832c50.062222 0 99.271111-8.248889 146.299259-24.462222l19.437037-6.731852-6.068148-19.721482c-8.438519-27.685926 3.128889-57.078519 28.16-71.49037 25.031111-14.411852 56.225185-9.765926 75.946667 11.282963l14.032592 15.075556 15.54963-13.463704c37.357037-32.426667 68.93037-70.542222 93.771852-113.208889 25.41037-43.614815 43.045926-90.737778 52.527407-140.231111l3.887408-20.195556-20.005926-4.645926c-28.16-6.542222-47.786667-31.288889-47.786667-60.207407s19.626667-53.665185 47.786667-60.207407l20.005926-4.645926-3.887408-20.195556c-9.481481-49.493333-27.211852-96.616296-52.527407-140.231111-24.841481-42.666667-56.414815-80.782222-93.771852-113.208889L789.807407 32.047407l-14.032592 15.075556c-19.721481 21.048889-50.915556 25.694815-75.946667 11.282963-25.031111-14.506667-36.598519-43.899259-28.16-71.49037l6.068148-19.721482-19.437037-6.731852c-47.028148-16.213333-96.237037-24.462222-146.299259-24.462222z m-114.820741 59.164444c37.167407-10.998519 75.662222-16.497778 114.820741-16.497777s77.653333 5.594074 114.820741 16.497777c-1.517037 16.023704 0.758519 32.331852 6.542222 47.407408 8.533333 22.091852 24.557037 40.865185 45.131852 52.717037 20.574815 11.851852 44.752593 16.402963 68.171852 12.8 16.023704-2.465185 31.194074-8.722963 44.278518-17.92 56.604444 53.854815 96.711111 123.448889 114.915556 198.921481-14.601481 6.731852-27.591111 16.782222-37.736297 29.392593-14.885926 18.488889-23.04 41.718519-23.04 65.422222 0 23.798519 8.154074 47.028148 23.04 65.422222 10.145185 12.61037 23.134815 22.660741 37.736297 29.392593-18.204444 75.567407-58.311111 145.066667-114.915556 198.921481-13.084444-9.291852-28.34963-15.454815-44.278518-17.92-23.419259-3.602963-47.597037 0.853333-68.171852 12.8-20.48 12.041481-36.503704 30.72-45.131852 52.906667-5.878519 15.17037-8.059259 31.478519-6.542222 47.407408-37.167407 10.998519-75.662222 16.497778-114.820741 16.497777s-77.653333-5.594074-114.820741-16.497777c1.517037-16.023704-0.758519-32.331852-6.542222-47.407408-8.533333-22.091852-24.557037-40.865185-45.131852-52.717037-20.574815-11.851852-44.752593-16.402963-68.171852-12.8-16.023704 2.465185-31.194074 8.722963-44.278518 17.92-56.604444-53.854815-96.711111-123.448889-114.915556-198.921481 14.601481-6.731852 27.591111-16.782222 37.736297-29.392593 14.885926-18.488889 23.04-41.718519 23.04-65.422222 0-23.798519-8.154074-47.028148-23.04-65.422222-10.145185-12.61037-23.134815-22.660741-37.736297-29.392593 18.204444-75.567407 58.311111-145.066667 114.915556-198.921481 13.084444 9.291852 28.34963 15.454815 44.278518 17.92 23.419259 3.602963 47.597037-0.853333 68.171852-12.8 20.574815-11.851852 36.598519-30.625185 45.131852-52.717038 5.783704-15.265185 7.964444-31.573333 6.542222-47.597037zM512 179.863704c-54.518519 0-105.813333 21.238519-144.402963 59.733333-38.58963 38.58963-59.828148 89.78963-59.828148 144.308148s21.238519 105.813333 59.828148 144.308148c38.58963 38.58963 89.884444 59.733333 144.402963 59.733334 25.694815 0 50.820741-4.740741 74.524444-14.032593 10.998519-4.266667 16.402963-16.687407 12.041482-27.685926-4.266667-10.998519-16.687407-16.402963-27.685926-12.041481-18.773333 7.395556-38.58963 11.093333-58.974815 11.093333-89.031111 0-161.564444-72.438519-161.564444-161.46963S422.968889 222.53037 512 222.53037 673.564444 294.968889 673.564444 384c0 13.179259-1.611852 26.358519-4.74074 38.968889-2.844444 11.472593 4.171852 23.04 15.549629 25.884444 11.472593 2.844444 23.04-4.171852 25.884445-15.549629 3.982222-16.023704 5.973333-32.616296 5.973333-49.303704 0-54.518519-21.238519-105.813333-59.828148-144.308148-38.58963-38.58963-89.884444-59.828148-144.402963-59.828148z"  horiz-adv-x="1024" />

    
    <glyph glyph-name="pingtai" unicode="&#58965;" d="M217.088-128C97.198-128 0-29.757 0 91.423V676.577C0 797.757 97.198 896 217.088 896h651.264c119.89 0 217.088-98.243 217.088-219.423v-585.154c0-121.18-97.198-219.423-217.088-219.423H217.088z m0 950.866c-79.933 0-144.732-65.495-144.732-146.289v-585.154c0-80.794 64.799-146.289 144.732-146.289h651.264c79.933 0 144.732 65.495 144.732 146.289V676.577c0 80.794-64.799 146.289-144.732 146.289H217.088zM873.472 336.507c0-94.25-76.984-170.619-171.889-170.619H361.82c-77.803-0.307-142.807 58.778-149.32 135.762-6.205 73.298 42.599 139.346 113.521 156.365 4.936 106.496 87.982 194.007 195.748 204.493 108.093 10.526 206.95-59.72 232.305-163.738 70.738-22.487 119.296-87.86 119.398-162.263z m-511.713-99.041H701.44c51.814 0.43 94.7 40.038 98.796 91.197 4.096 51.139-31.888 96.952-82.822 105.472a35.82 35.82 0 0 0-30.208 31.334c-9.154 75.551-76 131.031-152.658 126.608-76.656-4.403-136.58-67.175-136.847-143.114 0.041-6.063 0.45-12.104 1.229-18.105a35.656 35.656 0 0 0-8.745-28.426 35.983 35.983 0 0 0-27.095-12.042h-1.352c-42.64 0-77.21-34.181-77.312-76.37 0-42.25 34.611-76.554 77.312-76.554z"  horiz-adv-x="1085" />

    
    <glyph glyph-name="jiaoseshouquan" unicode="&#59209;" d="M241.796129 33.197419c3.963871 236.510968 96.454194 317.770323 282.756129 321.734194 105.042581 0 178.374194-29.729032 224.619355-92.490323 7.927742-10.570323 22.461935-12.552258 33.032258-5.285161 10.570323 7.927742 12.552258 22.461935 5.285161 33.032258-57.476129 77.956129-149.966452 112.309677-262.936774 111.649032-205.460645-0.660645-330.322581-118.916129-330.322581-369.300645 0-13.212903 10.570323-23.783226 23.783226-23.783226 13.212903 0.660645 23.783226 11.230968 23.783226 24.443871zM539.747097 93.316129c4.624516-0.660645 72.670968-79.938065 128.165161-86.544516 56.815484 7.267097 216.030968 147.323871 221.976774 148.645161 9.909677 8.588387 11.891613 23.122581 3.303226 33.692903-8.588387 9.909677-23.122581 11.891613-33.692903 3.303226 0-1.981935-186.301935-144.020645-191.587097-137.414193-5.945806-5.945806-93.811613 72.670968-94.472258 72.670967-9.249032 9.249032-24.443871 9.249032-33.692903 0-9.909677-9.909677-9.249032-25.104516 0-34.353548zM521.909677 734.141935l6.606452-23.783225c70.028387 0 126.843871-56.815484 126.843871-127.504516 0-70.028387-56.815484-126.843871-126.843871-127.504517-70.028387 0-126.843871 56.815484-126.843871 127.504517 0 70.028387 56.815484 126.843871 126.843871 127.504516l6.606452 23.783225-6.606452 23.783226c-96.454194 0-175.070968-78.616774-175.070968-175.070967C354.105806 486.4 432.061935 408.443871 528.516129 408.443871s175.070968 78.616774 175.070968 175.070968S625.630968 758.585806 528.516129 758.585806v-23.783225h-6.606452z"  horiz-adv-x="1024" />

    
    <glyph glyph-name="shanghuguanli" unicode="&#58911;" d="M904.9 534.18l-1.66 5.25-83.85 230.35a16.29 16.29 0 0 1-15.3 10.72H220.26A16.29 16.29 0 0 1 205 769.78l-85.63-235.6a171.28 171.28 0 0 1-6.75-47.47c0-60.78 32.07-116.34 83.9-144.68 21.26-11.56 46.24-17.53 74.58-17.53 47.36 0 91 21.63 120.82 58.54a155.91 155.91 0 0 1 120.44-58.17c47 0.37 90.24 22 119.7 58.17a155.07 155.07 0 0 1 121.19-58.17c28.71 0 54.44 6.34 75.7 18.64 51.09 28.71 82.41 83.9 82.41 144.31a150.74 150.74 0 0 1-6.46 46.36z m-50.55-45.71v-0.65c0-39.87-20.44-76.13-53.34-94.62l-0.32-0.18-0.32-0.18c-12.58-7.28-28.43-11-47.14-11a99.17 99.17 0 0 0-42.56 9.66 97.92 97.92 0 0 0-34.08 27.07l-31.5 39.47a16.29 16.29 0 0 1-25.36 0.13L587.86 419c-19-23.27-46.45-36.8-75.5-37.16a98.92 98.92 0 0 0-76.06 36.94l-31.66 39.27a16.29 16.29 0 0 1-25.35 0l-31.71-39.23a101.19 101.19 0 0 0-34.48-27.71 95.05 95.05 0 0 0-42-9.66c-18.45 0-34.35 3.55-47.26 10.56-33.44 18.3-54.21 54.56-54.21 94.65a114.92 114.92 0 0 0 5.26 34.15l0.08 0.25h0.13l73.67 202.44h526.81l73.74-202.6 0.37-1.13a94.8 94.8 0 0 0 4.67-30.66zM638.82 39.56m16 0l192 0q16 0 16-16l0-24q0-16-16-16l-192 0q-16 0-16 16l0 24q0 16 16 16ZM638.82 143.56m16 0l192 0q16 0 16-16l0-24q0-16-16-16l-192 0q-16 0-16 16l0 24q0 16 16 16ZM638.82 255.56m16 0l192 0q16 0 16-16l0-24q0-16-16-16l-192 0q-16 0-16 16l0 24q0 16 16 16ZM574.82 39.56h-352v224a8 8 0 0 1-8 8h-40a8 8 0 0 1-8-8v-248a32 32 0 0 1 32-32h376a8 8 0 0 1 8 8v40a8 8 0 0 1-8 8z"  horiz-adv-x="1024" />

    
    <glyph glyph-name="tubiaozhizuomoban-63" unicode="&#58891;" d="M564 526.7a72.13 72.13 0 1 1 72.14-72.13A72.22 72.22 0 0 1 564 526.7z m0-111.36a39.23 39.23 0 1 0 39.22 39.23A39.27 39.27 0 0 0 564 415.34zM691 455.88a16.43 16.43 0 0 1 14.9 18.71 144.5 144.5 0 0 1-23.59 60.82 16.52 16.52 0 0 1-11 7 16.28 16.28 0 0 1-12.61-3.2 4.23 4.23 0 0 0-5.81 6.11 16.44 16.44 0 0 1-2.71 23.78 138.85 138.85 0 0 1-59.69 26.3 16.45 16.45 0 0 1-19.35-14c-0.47-3.58-8-4.55-8.42 0.21A16.46 16.46 0 0 1 544 596.45a144.33 144.33 0 0 1-60.83-23.59 16.45 16.45 0 0 1-3.78-23.6 4.23 4.23 0 0 0-6.11-5.82 16.46 16.46 0 0 1-23.76-2.67 145.22 145.22 0 0 1-9.7-14.5 143.07 143.07 0 0 1-16.6-45.27 16.44 16.44 0 0 1 14-19.34 4.22 4.22 0 0 0-0.2-8.41 16.48 16.48 0 0 1-14.91-18.72 144.63 144.63 0 0 1 23.59-60.82 16.45 16.45 0 0 1 23.66-3.71 4.31 4.31 0 0 0 5.64-0.31 4.26 4.26 0 0 0 0.16-5.8 16.45 16.45 0 0 1 2.69-23.77 139.09 139.09 0 0 1 59.72-26.32 16.25 16.25 0 0 1 12.69 2.85 16.43 16.43 0 0 1 6.66 11.18c0.46 3.51 8 4.53 8.43-0.19a16.47 16.47 0 0 1 18.7-14.9 144.48 144.48 0 0 1 60.82 23.59 16.45 16.45 0 0 1 3.78 23.6 4.23 4.23 0 0 0 6.1 5.81 16.45 16.45 0 0 1 23.78 2.7 139.11 139.11 0 0 1 26.32 59.71 16.48 16.48 0 0 1-14 19.35 4.23 4.23 0 0 0 0.19 8.42z m-21.59-34.2a108.84 108.84 0 0 0-9.71-22.36c-0.08-0.12-0.15-0.25-0.22-0.37a37.12 37.12 0 0 1-44.19-42.09 112 112 0 0 0-23.18-9 37.13 37.13 0 0 1-61 1.33 109.11 109.11 0 0 0-22.36 9.72l-0.38 0.22a37.11 37.11 0 0 1-42.08 44.19 111.79 111.79 0 0 0-9 23.17 37.12 37.12 0 0 1 1.32 61 108.72 108.72 0 0 0 9.72 22.37l0.21 0.37a36.84 36.84 0 0 1 33.81 10.14 37.23 37.23 0 0 1 10.39 32 111.79 111.79 0 0 0 23.17 9 37.14 37.14 0 0 1 61-1.32 107.86 107.86 0 0 0 22.36-9.72l0.38-0.22a37.13 37.13 0 0 1 42.08-44.2 110.84 110.84 0 0 0 9-23.17 37.13 37.13 0 0 1-1.33-61zM860.91 267.66l89.35 356.81a20.58 20.58 0 0 1-20 25.56H185.4l-21.18 60.28A20.6 20.6 0 0 1 154 721.89l-56.92 28.46a20.57 20.57 0 1 1-18.4-36.8l49.49-24.73 180.4-513.44A20.56 20.56 0 0 1 328 161.63h520a20.57 20.57 0 1 1 0 41.14H342.54l-17.32 49.31H841a20.55 20.55 0 0 1 19.91 15.58z m-546.12 25.56l-111.7 315.67H904l-79-315.67zM420.61 154.56a49.46 49.46 0 1 1 49.46-49.46 49.51 49.51 0 0 1-49.46 49.46z m0-57.77a8.32 8.32 0 1 0 8.32 8.31 8.32 8.32 0 0 0-8.32-8.31zM753.78 154.56a49.46 49.46 0 1 1 49.46-49.46 49.51 49.51 0 0 1-49.46 49.46z m0-57.77a8.32 8.32 0 1 0 8.32 8.31 8.32 8.32 0 0 0-8.32-8.31z"  horiz-adv-x="1024" />

    
    <glyph glyph-name="tubiaozhizuomoban-27" unicode="&#58912;" d="M893.5 122.84c10.73 11.41 7.21 23 5.88 26.35a22.5 22.5 0 0 1-5.18 7.72V742.56c0 47.45-37.18 86-82.86 86H214.61c-45.68 0-82.86-38.6-82.86-86.05v-683.16a21.22 21.22 0 0 1 1.57-8c1.55-58.93 48.09-106.41 105.2-106.41h635.81c15.84 0 22.36 7.91 25 14.53 1.33 3.3 4.85 14.94-5.89 26.35-34.33 36.47-34.33 100.51 0.06 137.02zM336 787.36h121.09v-280.78L412 553.37a19.33 19.33 0 0 1-27.56 0.53L336 507.13z m508.57-801.2h-606c-36.18 0-65.62 30.57-65.62 68.15s29.44 68.15 65.62 68.15h606c-21.47-41.64-21.47-94.66-0.03-136.3z m9.93 177.56H238.52a102.52 102.52 0 0 1-67-25.09V742.56c0 24.7 19.35 44.8 43.13 44.8h81.64v-327.54a20.68 20.68 0 0 1 11.92-18.91 19.29 19.29 0 0 1 21.45 3.8l67.86 65.43 65.43-67.94a19.45 19.45 0 0 1 14-6 19.16 19.16 0 0 1 7.6 1.57 20.64 20.64 0 0 1 12.26 19V787.36h314.53c23.78 0 43.13-20.1 43.13-44.8z"  horiz-adv-x="1024" />

    
    <glyph glyph-name="tubiaozhizuomoban-108" unicode="&#58920;" d="M897.77 300.48h-16.43v468.1a62 62 0 0 1-62 61.94H257a62 62 0 0 1-62-61.94v-468.1h-16.44A59.49 59.49 0 0 1 119.14 241v-241.41a59.49 59.49 0 0 1 59.42-59.43h719.21a59.5 59.5 0 0 1 59.43 59.43V241a59.5 59.5 0 0 1-59.43 59.48zM236.3 768.58a20.65 20.65 0 0 0 20.7 20.64h562.39A20.66 20.66 0 0 0 840 768.58v-468.1H668.36A59.49 59.49 0 0 1 609 241v-11.6a18.15 18.15 0 0 0-18.12-18.11H485.51a18.15 18.15 0 0 0-18.13 18.11V241A59.49 59.49 0 0 1 408 300.48H236.3z m679.6-769a18.14 18.14 0 0 0-18.13-18.13H178.56a18.14 18.14 0 0 0-18.12 18.13V241a18.14 18.14 0 0 0 18.12 18.13H408A18.14 18.14 0 0 0 426.09 241v-11.6a59.48 59.48 0 0 1 59.42-59.4h105.32a59.47 59.47 0 0 1 59.41 59.4V241a18.14 18.14 0 0 0 18.12 18.13h229.41A18.14 18.14 0 0 0 915.9 241zM449.36 484.3a20.46 20.46 0 0 1 15.91 4.92l56.88 49.38 74.09-109.88-18.65 5.45A20.65 20.65 0 0 1 566 394.53l73.5-21.44a20.33 20.33 0 0 1 5.77-0.83 20.62 20.62 0 0 1 20.6 19.3l5.37 81.51A20.64 20.64 0 0 1 652 495c-11.31 0.32-21.22-7.87-22-19.26l-1.4-21.25L543.35 581a20.66 20.66 0 0 1-30.66 4l-57.46-49.87-86.11 119.17a20.65 20.65 0 1 1-33.47-24.19L435 492.71a20.59 20.59 0 0 1 14.36-8.41z"  horiz-adv-x="1024" />

    
    <glyph glyph-name="guanli1" unicode="&#58900;" d="M508.80512 773.12c-6.06208 0-12.04224-1.2288-17.6128-3.60448l-345.7024-148.11136a43.04896 43.04896 0 0 1 0.6144-79.74912l345.7024-141.59872c10.89536-4.5056 23.1424-4.5056 33.9968 0l345.7024 141.59872a43.04896 43.04896 0 0 1 0.69632 79.70816l-345.7024 148.15232A44.8512 44.8512 0 0 1 508.76416 773.12z m-0.04096-62.8736l299.17184-128.2048-299.13088-122.55232-299.17184 122.55232 299.13088 128.2048zM122.63424 399.27808a30.72 30.72 0 0 0 40.46848 15.81056l357.9904-156.75392a30.72 30.72 0 1 0-24.65792-56.27904l-357.9904 156.75392a30.72 30.72 0 0 0-15.81056 40.46848zM496.55808 257.8432l357.9904 156.79488a30.72 30.72 0 1 0 24.61696-56.27904l-357.9904-156.79488a30.72 30.72 0 1 0-24.61696 56.27904zM161.87392 250.0608l357.9904-156.75392a30.72 30.72 0 1 0-24.65792-56.27904l-357.9904 156.75392a30.72 30.72 0 0 0 24.65792 56.27904zM878.51008 193.7408l-357.9904-156.75392a30.72 30.72 0 0 0-24.61696 56.27904l357.9904 156.75392a30.72 30.72 0 0 0 24.61696-56.27904z"  horiz-adv-x="1024" />

    
    <glyph glyph-name="zhucejiankong" unicode="&#58892;" d="M512 276.2c-91 0-165 74-165 165s74 165 165 165 165-74 165-165-74.1-165-165-165z m0 298.8c-73.8 0-133.9-60.1-133.9-133.9S438.2 307.2 512 307.2s133.8 60.2 133.8 134S585.8 575 512 575zM512 760.8c-21.7 0-39.4-17.7-39.4-39.4S490.3 682 512 682s39.4 17.7 39.4 39.4-17.7 39.4-39.4 39.4zM708.1 195.7c72.1 57.7 118.3 146.3 118.3 245.6 0 128.7-77.2 243.1-196.7 291.4-8 3.3-17-0.6-20.3-8.6-3.2-8 0.6-17 8.6-20.3 107.7-43.5 177.3-146.6 177.3-262.6 0-92.3-44.4-174.4-112.9-226.2l-6.6-4.7c-31.6-22.5-66.9-38-104-46.1h-0.1c-1.6-0.4-3.3-0.7-5-1-0.3-0.1-0.7-0.1-1-0.2-4.4-0.9-8.9-1.6-13.4-2.2-0.9-0.1-1.9-0.3-2.9-0.4-1.1-0.1-2.1-0.3-3.2-0.4-1.2-0.1-2.3-0.3-3.5-0.4-0.9-0.1-1.8-0.2-2.8-0.3-2-0.2-4-0.4-6-0.5-0.5 0-1-0.1-1.5-0.1-1.7-0.1-3.5-0.2-5.2-0.3-0.7 0-1.5-0.1-2.2-0.1-1.5-0.1-3.1-0.1-4.6-0.2-0.7 0-1.4 0-2-0.1-2.2 0-4.4-0.1-6.6-0.1-2.2 0-4.4 0-6.6 0.1-0.7 0-1.4 0-2 0.1-1.6 0-3.1 0.1-4.6 0.2-0.7 0-1.5 0.1-2.2 0.1-1.7 0.1-3.5 0.2-5.2 0.3-0.5 0-0.9 0.1-1.4 0.1-2 0.2-4 0.3-6.1 0.5l-2.7 0.3c-1.2 0.1-2.4 0.3-3.5 0.4-1 0.1-2.1 0.3-3.1 0.4-1 0.1-2 0.3-3 0.4-4.4 0.6-8.8 1.4-13.2 2.2-0.4 0.1-0.8 0.1-1.2 0.2-1.6 0.3-3.2 0.6-4.8 1-0.1 0-0.2 0-0.3 0.1-37.1 8-72.3 23.6-103.9 46l-6.6 4.7c-68.5 51.8-112.9 133.9-112.9 226.2 0 116 69.6 219 177.3 262.6 8 3.2 11.8 12.3 8.6 20.3s-12.3 11.8-20.3 8.6C274.8 684.4 197.6 570 197.6 441.3c0-99.3 46.2-187.9 118.3-245.6-32.1-36.4-53.3-80.3-61.6-128-2.6-15 1.6-30.2 11.4-41.9 9.9-11.7 24.3-18.5 39.6-18.5h413.2c15.3 0 29.7 6.7 39.6 18.5 9.8 11.7 14 26.9 11.4 41.9-8.1 47.7-29.3 91.7-61.4 128z m26.3-150c-3.9-4.7-9.7-7.4-15.8-7.4H305.4c-6.1 0-11.9 2.7-15.8 7.4-4 4.7-5.6 10.6-4.5 16.5 7.4 43 26.8 82.5 56.3 115 31-20.1 65.7-34.9 102.8-43.1l1.5-0.3c1.5-0.3 3.1-0.7 4.6-1 0.2 0 0.3-0.1 0.5-0.1 2.8-0.6 5.7-1.1 8.5-1.6 1.1-0.2 2.2-0.4 3.2-0.5 1.1-0.2 2.2-0.4 3.4-0.5l4.2-0.6c0.9-0.1 1.9-0.3 2.8-0.4 2-0.3 4-0.5 6.1-0.7 0.8-0.1 1.7-0.2 2.5-0.2 1.6-0.2 3.3-0.3 5-0.4 0.7-0.1 1.4-0.1 2.1-0.2 2.3-0.2 4.6-0.3 6.9-0.4 0.5 0 1.1 0 1.6-0.1 1.9-0.1 3.8-0.2 5.7-0.2 0.7 0 1.3 0 2-0.1 2.4-0.1 4.8-0.1 7.2-0.1 2.4 0 4.8 0 7.2 0.1 0.7 0 1.4 0 2 0.1 1.9 0.1 3.8 0.1 5.7 0.2 0.5 0 1.1 0 1.6 0.1 2.3 0.1 4.6 0.3 6.9 0.4 0.7 0.1 1.5 0.1 2.2 0.2 1.6 0.1 3.3 0.3 4.9 0.4 0.9 0.1 1.7 0.2 2.6 0.3 2 0.2 3.9 0.4 5.9 0.7 1 0.1 2.1 0.3 3.1 0.4 1.4 0.2 2.7 0.4 4.1 0.6 1.2 0.2 2.3 0.3 3.4 0.5 1 0.2 2.1 0.3 3.1 0.5 4.6 0.8 9.3 1.7 13.8 2.7 0.4 0.1 0.8 0.2 1.3 0.3 37.2 8.2 71.9 23 102.9 43.1 29.5-32.5 48.8-72 56.3-115 1-5.9-0.6-11.8-4.6-16.6z"  horiz-adv-x="1024" />

    
    </font>
</defs>
</svg>
